<svg width="220" height="45" viewBox="0 0 220 45" fill="none" xmlns="http://www.w3.org/2000/svg">
<path d="M111.197 0.0506935C110.776 0.0903664 110.109 0.189556 109.709 0.268906C109.31 0.358173 108.868 0.427605 108.722 0.427605C108.461 0.427605 107.176 0.893787 106.153 1.35997C104.65 2.05428 102.988 3.44291 101.899 4.93073C100.194 7.2418 99.3446 10.1976 99.3591 13.7684C99.3663 14.8297 99.3808 15.2363 99.4752 15.9505C99.4897 16.0596 99.5188 16.3869 99.5478 16.6845C99.6421 17.6268 100.368 20.037 100.666 20.404C100.753 20.5131 100.818 20.652 100.818 20.7214C100.818 20.9495 101.965 22.4076 102.604 22.9928C103.286 23.6078 104.193 24.2624 104.774 24.56C105.993 25.165 106.639 25.4527 107.024 25.5618C107.263 25.6312 107.546 25.7403 107.663 25.7998C107.771 25.8593 108.163 26.0081 108.534 26.1172C108.897 26.2164 109.332 26.3553 109.492 26.4049C109.651 26.4644 110.08 26.6032 110.435 26.7123C111.343 26.9901 112.337 27.3571 112.685 27.5257C112.845 27.615 113.106 27.7241 113.266 27.7836C114.602 28.2498 116.148 29.4698 116.99 30.7295C117.81 31.9594 118.209 33.4373 118.289 35.5401C118.383 38.2181 117.498 40.7672 116.002 42.1261C115.415 42.6518 114.594 43.1874 113.956 43.4652C112.823 43.9413 110.82 44.1297 109.543 43.8718C109.274 43.8123 108.795 43.723 108.476 43.6635C108.156 43.604 107.801 43.4949 107.677 43.4255C107.561 43.356 107.329 43.2469 107.169 43.1874C106.465 42.8998 105.282 42.0765 104.52 41.3227C103.794 40.6085 103.373 40.0729 102.879 39.2596C102.683 38.9323 102.502 38.6446 102.48 38.6149C102.422 38.5454 101.834 37.3453 101.834 37.2957C101.834 37.2659 101.696 36.8989 101.522 36.4724C101.348 36.036 101.079 35.3714 100.927 34.9945C100.774 34.6077 100.608 34.1217 100.564 33.9035C100.513 33.6852 100.433 33.5067 100.382 33.5067C100.317 33.5067 100.288 33.8439 100.266 34.7961C100.223 37.3552 100.223 44.3578 100.274 44.457C100.353 44.6455 100.549 44.5761 101.312 44.0504L102.066 43.5247H103.025C103.75 43.5247 104.142 43.5743 104.701 43.7528C106.414 44.2884 107.067 44.457 107.713 44.5562C108.091 44.6157 108.57 44.7149 108.766 44.7645C109.361 44.9232 111.735 44.9926 112.613 44.8736C113.723 44.7248 114.645 44.5165 115.197 44.2785C115.451 44.1694 115.952 43.9611 116.315 43.8222C116.67 43.6734 117.309 43.3164 117.723 43.0188C118.144 42.7212 118.514 42.4832 118.55 42.4832C118.579 42.4832 118.804 42.3047 119.036 42.0864C119.269 41.8682 119.486 41.6897 119.508 41.6897C119.603 41.6897 120.626 40.4895 121.04 39.8944C121.606 39.091 121.78 38.7934 122.223 37.9206C122.426 37.5139 122.912 36.1947 122.992 35.8376C123.021 35.6988 123.072 35.5401 123.101 35.4905C123.137 35.4309 123.181 35.2227 123.21 35.0144C123.239 34.816 123.29 34.6176 123.326 34.5978C123.355 34.568 123.406 34.33 123.428 34.0721C123.457 33.8142 123.529 33.3579 123.595 33.0604C123.696 32.6239 123.718 32.0982 123.718 30.3823C123.718 28.5374 123.696 28.1208 123.551 27.2579C123.195 25.0956 122.528 23.2011 121.737 22.0902C120.858 20.8603 119.682 20.037 117.621 19.2237C117.265 19.0848 116.721 18.8666 116.423 18.7377C116.126 18.6087 115.618 18.45 115.298 18.3806C114.979 18.3111 114.66 18.2219 114.587 18.1624C114.514 18.1128 114.181 18.0037 113.839 17.9243C113.498 17.845 113.15 17.7359 113.056 17.6863C112.961 17.6367 112.562 17.5276 112.177 17.4383C111.785 17.349 111.335 17.2002 111.168 17.1209C111.001 17.0415 110.689 16.9126 110.472 16.8432C109.586 16.5555 108.084 15.6926 107.423 15.0875C107.285 14.9685 107.075 14.79 106.966 14.7106C106.632 14.4825 105.536 12.6178 105.536 12.2805C105.536 12.2309 105.492 12.0623 105.434 11.9135C105.376 11.7747 105.311 11.4771 105.289 11.2688C105.267 11.0605 105.217 10.634 105.173 10.3067C105.042 9.40409 105.18 7.56912 105.434 6.80537C105.492 6.63675 105.536 6.42846 105.536 6.34911C105.536 6.02179 106.211 4.39511 106.625 3.72064C106.871 3.33381 107.096 3.00648 107.126 3.00648C107.155 3.00648 107.242 2.92714 107.321 2.82795C107.808 2.2229 108.984 1.51867 109.869 1.31038C110.08 1.26078 110.443 1.17151 110.675 1.112C111.299 0.963219 113.027 0.992973 113.818 1.18143C114.732 1.38972 115.814 1.88567 116.583 2.44112C117.911 3.40324 119.305 5.07951 120.089 6.68635C120.285 7.0831 120.524 7.52944 120.612 7.65839C120.706 7.78733 120.778 7.95595 120.778 8.02538C120.778 8.10473 120.807 8.16425 120.844 8.16425C120.88 8.16425 120.945 8.29319 120.996 8.46181C121.047 8.62051 121.141 8.84864 121.221 8.96767L121.352 9.17596L121.424 8.78913C121.468 8.57092 121.497 6.96407 121.504 4.92081C121.504 2.99656 121.526 1.29054 121.548 1.13184C121.606 0.72517 121.468 0.39785 121.265 0.487118C121.178 0.516872 121.054 0.606144 120.996 0.685493C120.931 0.754925 120.655 0.933464 120.379 1.08224C119.987 1.28062 119.748 1.34013 119.341 1.33021C119.051 1.33021 118.782 1.30046 118.746 1.2707C118.717 1.24094 118.274 1.112 117.773 0.973137C117.265 0.844193 116.736 0.685493 116.583 0.62598C116.438 0.566467 115.908 0.457363 115.407 0.37801C114.906 0.29866 114.246 0.189556 113.941 0.130043C113.208 -0.00881958 112.148 -0.038578 111.197 0.0506935Z" fill="white"/>
<path d="M132.682 0.62664C132.602 0.735744 132.537 0.924202 132.537 1.04323C132.537 1.17217 132.537 10.9719 132.537 22.8348C132.529 43.4063 132.537 44.418 132.66 44.5866C132.783 44.7553 134.656 44.7652 176.326 44.785C214.955 44.8148 219.869 44.7949 219.927 44.666C219.971 44.5767 220 36.2152 220 22.5372C220 2.58064 219.992 0.547291 219.884 0.487778C219.818 0.458019 200.206 0.428265 176.297 0.428265C132.921 0.428265 132.827 0.428265 132.682 0.62664ZM144.89 25.0268C146.255 25.2054 147.3 25.6914 147.394 26.1873C147.453 26.5345 147.191 27.5859 146.901 28.1612C146.654 28.6472 146.451 28.7364 145.936 28.5381C144.716 28.0719 143.685 27.9628 143.279 28.2504C143.061 28.4091 142.938 28.7761 143.018 29.0439C143.076 29.2522 143.417 29.52 144.223 29.9961C145.282 30.6309 146.335 31.355 146.661 31.7022C147.315 32.3865 147.598 33.3388 147.547 34.6877C147.511 35.7193 147.315 36.2945 146.748 37.0484C146.139 37.8716 145.471 38.2882 144.331 38.5759C142.902 38.923 140.448 38.5362 139.889 37.8815C139.686 37.6435 139.686 37.6336 139.686 36.4136C139.686 34.6579 139.751 34.5588 140.666 34.9456C141.326 35.2233 142.691 35.5407 143.257 35.5407C144.034 35.5407 144.44 35.144 144.31 34.4992C144.259 34.2612 144.157 34.1323 143.787 33.8843C143.533 33.7157 143.163 33.4974 142.96 33.4082C142.756 33.3189 142.263 33.0313 141.856 32.7635C140.376 31.7815 139.853 30.8591 139.809 29.1233C139.751 27.199 140.354 26.1179 141.864 25.4037C142.735 24.9971 143.729 24.8681 144.89 25.0268ZM164.415 25.1657C164.727 25.245 165.192 25.4037 165.46 25.5228C165.983 25.7608 166.114 25.9989 166.048 26.5741C165.998 26.9808 165.642 28.2107 165.511 28.4091C165.344 28.6769 164.902 28.7166 164.423 28.5083C163.508 28.1116 162.426 28.0421 161.889 28.3496C161.592 28.5182 161.084 29.1431 160.931 29.5299C160.605 30.3631 160.459 32.0791 160.626 33.1602C160.743 33.914 161.178 34.8662 161.512 35.1043C161.875 35.3622 162.434 35.5407 162.884 35.5407C163.385 35.5407 164.437 35.2927 164.858 35.0845C165.025 34.9952 165.265 34.9059 165.388 34.8762C165.591 34.8365 165.613 34.8563 165.693 35.2233C165.802 35.7093 165.802 37.0484 165.7 37.5542C165.591 38.0998 165.148 38.3576 163.98 38.556C162.143 38.8734 160.721 38.6453 159.567 37.8419C159.407 37.7328 159.022 37.3261 158.725 36.9393C157.817 35.7887 157.433 34.5588 157.288 32.4163C157.164 30.621 157.404 29.3216 158.144 27.8338C158.841 26.4353 159.951 25.5128 161.352 25.1756C162.078 25.007 163.718 24.9971 164.415 25.1657ZM203.073 25.2252C203.139 25.3343 203.211 25.5922 203.233 25.8005C203.291 26.4055 203.204 27.9826 203.102 28.1215C203.044 28.2008 202.696 28.2504 202.014 28.2802C201.469 28.2901 200.954 28.3298 200.867 28.3496C200.562 28.4389 200.547 28.6769 200.547 33.4974C200.547 37.2963 200.533 38.1097 200.446 38.2783C200.351 38.4568 200.242 38.4668 198.958 38.4668C197.724 38.4668 197.564 38.4469 197.448 38.2882C197.325 38.1196 197.317 37.8121 197.339 33.3487C197.354 29.7977 197.339 28.548 197.274 28.4389C197.209 28.3298 196.933 28.3 195.967 28.3H194.748L194.704 27.8735C194.683 27.6454 194.668 26.9411 194.683 26.3163L194.704 25.1756L197.971 25.126C199.771 25.0963 201.622 25.0665 202.093 25.0467C202.87 25.0268 202.957 25.0467 203.073 25.2252ZM206.601 25.1657C206.906 25.3343 207 25.5327 207.697 27.3577C208.299 28.9447 208.553 29.4903 208.706 29.4903C208.844 29.4903 209.069 29.1034 209.308 28.4488C210.128 26.1972 210.426 25.4434 210.52 25.3343C210.76 25.0566 213.504 24.9375 213.685 25.1855C213.765 25.2946 213.634 26.098 213.504 26.3163C213.453 26.3956 213.257 26.8221 213.068 27.2585C212.879 27.695 212.647 28.2107 212.56 28.3992C212.429 28.6769 211.5 30.75 211.217 31.3748C211.181 31.4542 210.992 31.8807 210.796 32.3171C210.6 32.7535 210.426 33.19 210.397 33.2792C210.375 33.3685 210.332 34.5092 210.31 35.8085C210.274 37.6633 210.237 38.1989 210.157 38.318C210.012 38.5163 207.356 38.5362 207.211 38.3378C207.138 38.2386 207.109 37.584 207.073 35.8085L207.036 33.4082L206.804 32.8031C206.535 32.0791 205.911 30.6508 204.648 27.9033C203.843 26.1377 203.523 25.3641 203.523 25.1855C203.523 25.1161 204.147 25.0665 205.323 25.0467C206.071 25.0367 206.427 25.0665 206.601 25.1657ZM155.771 25.2946C155.879 25.4632 155.916 27.695 155.821 28.0223C155.771 28.181 155.633 28.2008 154.442 28.2008C153.02 28.2008 152.591 28.2802 152.439 28.5678C152.308 28.8059 152.388 29.7878 152.555 29.9564C152.635 30.0457 153.034 30.0854 153.934 30.0854C155.154 30.0854 155.422 30.1449 155.56 30.4226C155.589 30.4821 155.618 31.0277 155.618 31.6327C155.618 33.1999 155.72 33.1007 153.992 33.1404C152.635 33.1701 152.562 33.18 152.461 33.3883C152.308 33.6859 152.308 34.9753 152.468 35.1836C152.591 35.3622 152.562 35.3622 154.319 35.3423C155.386 35.3324 155.618 35.3523 155.713 35.4812C155.858 35.6796 155.93 36.5128 155.894 37.4848C155.872 38.0898 155.843 38.2684 155.727 38.3775C155.531 38.5759 149.434 38.5362 149.289 38.3378C149.216 38.2386 149.187 36.9194 149.173 31.9402C149.165 28.4885 149.173 25.5724 149.195 25.4533C149.224 25.2946 149.296 25.2252 149.47 25.1954C149.594 25.1756 151.045 25.1458 152.686 25.1458C155.386 25.126 155.683 25.1458 155.771 25.2946ZM170.832 25.3641C170.919 25.5228 170.933 26.2766 170.933 29.6291C170.933 32.1981 170.962 33.8446 171.013 34.0827C171.115 34.5984 171.536 35.2134 171.862 35.3423C172.646 35.63 173.626 35.3225 173.909 34.6877C174.156 34.1521 174.2 33.4082 174.2 29.3911C174.207 27.2883 174.236 25.5128 174.265 25.4335C174.359 25.2252 174.875 25.1359 176.036 25.126C177.009 25.126 177.117 25.1458 177.248 25.3244C177.386 25.5128 177.393 25.6517 177.393 29.5101C177.393 33.9041 177.342 34.6679 176.987 35.7093C176.529 37.0186 175.303 38.189 174.091 38.4767C173.931 38.5064 173.735 38.556 173.655 38.5759C172.835 38.804 171.122 38.6651 170.353 38.3081C169.046 37.6931 168.211 36.5326 167.841 34.7869C167.732 34.281 167.711 33.5966 167.689 29.8573C167.66 26.6634 167.674 25.4732 167.74 25.374C167.856 25.1756 168.117 25.1458 169.503 25.1657C170.628 25.1756 170.737 25.1954 170.832 25.3641ZM184.427 25.2252C186.06 25.5128 187.294 26.465 187.715 27.7842C188.143 29.1431 187.787 30.9087 186.894 31.8807C186.292 32.5452 186.227 32.6544 186.277 32.9718C186.299 33.1305 186.604 33.7653 186.952 34.3901C188.847 37.7228 189.036 38.1196 188.876 38.3378C188.738 38.5263 185.994 38.5759 185.748 38.3973C185.653 38.3279 185.392 37.8815 185.167 37.3955C184.354 35.6597 183.628 34.2612 183.439 34.0529C183.338 33.9438 183.178 33.8545 183.091 33.8545C182.757 33.8545 182.728 34.043 182.728 36.1458C182.728 37.9014 182.714 38.1295 182.597 38.2882C182.481 38.4469 182.314 38.4668 181.102 38.4668C180.043 38.4668 179.709 38.437 179.614 38.3279C179.505 38.1989 179.498 37.6733 179.513 31.8113C179.527 28.3099 179.556 25.4137 179.585 25.374C179.614 25.3343 179.745 25.2649 179.876 25.2252C180.238 25.1062 183.737 25.1161 184.427 25.2252ZM193.158 25.3045C193.296 25.493 193.296 38.1494 193.158 38.3378C193.02 38.5263 190.291 38.5263 190.153 38.3378C190.081 38.2386 190.052 36.8996 190.015 31.9402C189.986 28.4984 189.994 25.5724 190.03 25.4533C190.103 25.1756 190.291 25.1458 191.852 25.1657C192.737 25.1756 193.093 25.2054 193.158 25.3045Z" fill="white"/>
<path d="M183.128 28.0828C182.794 28.1522 182.765 28.2613 182.765 29.402C182.765 30.9592 182.852 31.0485 183.977 30.622C184.442 30.4435 184.58 30.1558 184.58 29.3524C184.58 28.5787 184.398 28.3109 183.774 28.1621C183.52 28.1026 183.23 28.063 183.128 28.0828Z" fill="white"/>
<path d="M0.101617 0.756062C0.0435501 0.795734 0 0.885002 0 0.934597C0 0.99411 0.246784 1.46029 0.551634 1.97607C1.48796 3.58291 1.87991 4.5847 2.83076 7.76863C2.9977 8.34392 3.20093 8.99856 3.27351 9.22669C3.35336 9.46474 3.41142 9.69287 3.41142 9.75238C3.41142 9.8119 3.44046 9.93092 3.48401 10.0301C3.56385 10.2086 4.87035 14.6324 5.23327 15.9516C5.35666 16.388 5.50183 16.8741 5.55264 17.0427C5.60344 17.2014 5.9954 18.5404 6.42364 20.0183C6.85188 21.4863 7.24383 22.8253 7.29464 22.9939C7.35271 23.1526 7.48336 23.599 7.58497 23.9858C7.69385 24.3627 7.83902 24.8686 7.91886 25.0967C7.99144 25.3348 8.05677 25.5431 8.05677 25.5728C8.05677 25.6026 8.35436 26.6441 8.71728 27.8839C9.08745 29.1237 9.42859 30.314 9.48666 30.5322C9.54473 30.7504 9.62457 30.9686 9.66086 31.0182C9.69715 31.0777 9.72619 31.1868 9.72619 31.2662C9.73344 31.3555 9.79151 31.6034 9.87135 31.8217C9.95119 32.0399 10.0093 32.2581 10.0165 32.2978C10.0165 32.3473 10.0601 32.5259 10.1181 32.6945C10.1762 32.873 10.5246 34.0633 10.8875 35.3428C11.2577 36.6223 11.5771 37.7432 11.6134 37.8225C11.6424 37.9118 11.8238 38.5168 12.0126 39.1615C12.2013 39.8162 12.419 40.5403 12.4916 40.7684C12.5715 40.9965 12.6295 41.2246 12.6295 41.2742C12.6295 41.3139 12.7602 41.7801 12.9199 42.286C13.0795 42.7918 13.2102 43.258 13.2102 43.2977C13.2102 43.3473 13.29 43.6349 13.3917 43.9325C13.4933 44.23 13.5731 44.5078 13.5731 44.5574C13.5731 44.597 13.6457 44.726 13.7401 44.8351C13.9143 45.0533 14.1175 45.0533 14.2699 44.845C14.3498 44.726 15.0974 42.4347 15.62 40.699C15.7434 40.2923 15.8885 39.8162 15.9393 39.6376C15.9974 39.469 16.0409 39.3004 16.0409 39.2607C16.0409 39.2211 16.1063 39.0028 16.1861 38.7747C16.2587 38.5466 16.5926 37.4952 16.912 36.4339C17.7684 33.6169 17.9644 32.9821 19.0024 29.6891C19.6121 27.7748 20.621 24.5214 21.1944 22.6468C21.7242 20.911 21.9275 20.2564 22.0726 19.8199C22.1452 19.6017 22.3993 18.7785 22.646 17.985C22.8928 17.1915 23.1541 16.3682 23.2267 16.15C23.2993 15.9318 23.4517 15.4656 23.5533 15.1085C23.7711 14.3944 23.9235 13.9183 24.0614 13.4719C24.1122 13.3033 24.3082 12.6586 24.4969 12.0337C24.8889 10.7145 25.4913 8.77042 25.8325 7.74879C25.9123 7.4909 25.9849 7.25285 25.9849 7.22309C25.9849 7.20326 26.0865 6.87594 26.2099 6.50895C26.7325 4.94178 27.9737 2.76957 28.9245 1.75785C29.1277 1.54956 29.3237 1.30159 29.3745 1.22224C29.4907 1.02386 29.4907 0.726303 29.3818 0.716385C28.6777 0.656872 21.2307 0.76598 21.0347 0.835411C20.7008 0.954433 20.7226 1.08338 21.2089 1.76777C22.1452 3.05721 22.3847 4.98145 22.0654 8.71091C21.8476 11.3394 21.4412 13.8488 20.6427 17.489C20.4032 18.59 19.5975 21.8533 19.5104 22.0814C19.4741 22.1806 19.1983 23.2122 18.9007 24.3627C18.6031 25.5232 18.233 26.8325 18.066 27.2888C17.7975 28.0426 17.7539 28.112 17.5797 28.0823C17.4346 28.0624 17.3475 27.9533 17.2458 27.6558C17.0934 27.2193 16.5926 25.2554 16.4402 24.4818C16.3821 24.204 16.2006 23.47 16.0409 22.8452C15.874 22.2203 15.678 21.4565 15.6054 21.159C15.5329 20.8614 15.3877 20.296 15.2933 19.9191C14.9449 18.5801 13.3771 12.4602 12.6803 9.70279C11.3666 4.51527 11.2504 3.97966 11.2504 3.1564C11.2504 2.43233 11.4464 2.00583 11.9835 1.55948C12.3973 1.2024 12.5424 0.885002 12.3247 0.775898C12.1577 0.696548 0.210492 0.676708 0.101617 0.756062Z" fill="white"/>
<path d="M89.9664 4.05921C88.2969 4.37661 87.2082 5.39825 86.7364 7.12411C86.5114 7.94737 86.5041 9.08803 86.7291 9.86169C86.9614 10.685 87.6001 11.5975 88.2679 12.0537C89.0083 12.5695 89.5454 12.7481 90.3656 12.7381C91.4253 12.7381 92.1076 12.4307 92.8697 11.6372C94.9093 9.4947 94.2706 5.44784 91.7156 4.33694C91.193 4.11872 90.3728 3.97986 89.9664 4.05921Z" fill="white"/>
<path d="M76.8223 8.24422C76.2924 8.76991 75.2908 9.78163 74.5794 10.4958C73.2947 11.7852 68.6348 16.5165 68.3082 16.8636C68.1776 17.0025 68.1485 17.1116 68.1848 17.2703C68.2356 17.4687 68.2937 17.4885 68.7219 17.4984C70.1809 17.5282 70.4349 17.5679 70.5656 17.7861C70.6309 17.8952 70.7107 18.2721 70.7398 18.6589C70.7688 19.0259 70.7761 23.8762 70.7543 29.4406C70.7325 35.0051 70.7398 39.8355 70.7688 40.1827C70.9285 41.9581 72.039 43.4955 73.7302 44.289C74.5214 44.656 75.0875 44.7651 76.2126 44.7651C77.5771 44.7651 78.6441 44.3287 79.8345 43.2773C80.7055 42.5037 81.5257 41.2737 81.5475 40.6786C81.562 40.4406 81.5402 40.4108 81.4168 40.4604C81.337 40.5001 81.1192 40.6687 80.9377 40.8472C80.3571 41.4126 79.9434 41.6209 79.5296 41.5515C79.0941 41.4721 78.6223 41.2043 78.4336 40.9167C78.107 40.4108 78.0997 40.1827 78.0997 28.9348C78.0997 23.0926 78.1215 18.1729 78.1433 18.0043C78.1651 17.8357 78.2304 17.677 78.2885 17.6472C78.3393 17.6175 78.753 17.5679 79.203 17.5282C80.1974 17.4488 80.524 17.3199 81.0103 16.8339C81.562 16.2883 81.8596 15.2965 81.5547 15.0287C81.5112 14.989 80.749 14.9394 79.8635 14.9096C78.978 14.8799 78.2304 14.8204 78.1941 14.7807C78.1651 14.7311 78.1215 13.0647 78.0997 11.081C78.0707 8.00617 78.0489 7.45072 77.9546 7.37137C77.8965 7.32177 77.8312 7.27218 77.8094 7.27218C77.7876 7.27218 77.3449 7.70861 76.8223 8.24422Z" fill="white"/>
<path d="M62.7988 14.1065C61.6302 14.5727 60.9044 15.2471 59.91 16.7945C59.6342 17.221 59.3221 17.588 59.235 17.588C59.1043 17.588 59.0826 17.3995 59.01 15.8323C58.9664 14.9793 58.9084 14.2354 58.8721 14.1858C58.7922 14.0767 58.5454 14.1164 57.3986 14.3941C56.4623 14.6322 55.1268 14.771 53.0581 14.8603C50.4596 14.9793 50.4379 14.9793 50.3145 15.138C50.2129 15.2769 50.2274 15.3265 50.4669 15.6538C51.1056 16.5267 51.3887 17.0821 51.6573 17.9946C51.7734 18.4013 51.7879 19.1948 51.8024 29.2624C51.8315 41.3335 51.846 40.9368 51.3452 42.1667C51.1927 42.5337 50.8951 43.0693 50.6774 43.3569C50.4669 43.6446 50.3 43.9421 50.3217 44.0116C50.3435 44.081 50.4887 44.1703 50.6411 44.1901C51.1492 44.2893 60.6213 44.1901 60.6939 44.0909C60.7375 44.0314 60.5705 43.7339 60.2221 43.2677C59.4745 42.256 59.1842 41.4525 59.0753 40.1333C59.0317 39.5085 59.01 36.3741 59.0245 31.3255C59.0535 22.6862 59.039 23.0334 59.5181 21.7737C59.8374 20.9405 59.881 20.8612 60.2874 20.3057C60.9842 19.3535 61.877 18.9964 62.7698 19.3138C63.0238 19.4031 63.5319 19.6808 63.9094 19.9288C64.4465 20.2859 64.6134 20.3553 64.7295 20.276C64.8094 20.2164 65.0925 19.5023 65.3973 18.6096C65.6877 17.7467 66.0506 16.6854 66.1957 16.2489C66.3482 15.8125 66.4861 15.3562 66.5078 15.2273C66.5732 14.8603 66.2974 14.533 65.6877 14.2453C64.9473 13.9081 63.4884 13.8387 62.7988 14.1065Z" fill="white"/>
<path d="M35.2464 14.5624C34.8835 14.6418 34.4843 14.7608 34.3464 14.8203C34.2158 14.8798 34.0633 14.9393 34.0198 14.9493C33.7657 15.0187 33.2214 15.2468 32.8076 15.465C32.3939 15.6733 31.0511 16.6354 30.8261 16.8933C30.7753 16.9429 30.4559 17.3 30.1148 17.6769C28.9389 18.9763 27.9954 20.6228 27.226 22.7057C26.2969 25.235 25.8614 28.4785 26.0574 31.3747C26.3332 35.4315 27.2695 38.4072 29.0406 40.867C30.3688 42.702 31.6753 43.7038 33.6423 44.3783C34.448 44.656 34.644 44.6857 36.1465 44.7353C37.5836 44.7849 37.903 44.7651 38.7958 44.5766C40.4652 44.2196 41.4741 43.7534 42.483 42.8508C43.6734 41.7895 44.7476 39.9942 45.5097 37.7823C46.134 35.987 46.3082 35.1935 46.134 34.9554C46.0323 34.8265 45.9888 34.8562 45.713 35.3026C44.675 36.9293 44.0145 37.6236 42.9258 38.1989C41.808 38.8039 41.5322 38.8634 40.0297 38.8634C38.5635 38.8535 37.8957 38.7345 37.0901 38.298C36.4876 37.9806 35.5368 37.088 35.1521 36.473C34.2811 35.1042 33.7149 33.0808 33.4972 30.5812C33.3157 28.4983 33.3738 27.6552 33.7004 27.5659C33.7875 27.5362 36.5892 27.4866 39.9208 27.4568C45.9307 27.3973 45.9815 27.3973 46.1122 27.189C46.1848 27.0799 46.2356 26.822 46.2356 26.6038C46.2356 25.9095 46.0178 23.896 45.8291 22.8644C45.6404 21.823 45.1396 20.0376 44.9581 19.7599C44.9 19.6805 44.8565 19.5714 44.8565 19.5218C44.8565 19.3829 44.1452 18.1431 43.8258 17.7265C43.4629 17.2504 42.7588 16.5263 42.3741 16.2189C41.4814 15.5245 39.8337 14.7906 38.8321 14.6616C38.5708 14.6219 38.2659 14.5823 38.1425 14.5525C37.5256 14.4236 35.8489 14.4236 35.2464 14.5624ZM36.9304 15.6237C37.3514 15.7725 37.8812 16.4371 38.1716 17.1909C38.7232 18.5994 39.1224 21.8626 39.1224 24.9871C39.1224 25.9095 39.0571 26.088 38.6506 26.217C38.2587 26.3459 33.8528 26.3459 33.6859 26.217C33.4028 26.0186 33.3665 25.6119 33.4173 23.6282C33.4972 20.3847 33.6206 19.1548 33.9835 17.8852C34.2012 17.1413 34.4045 16.7148 34.7529 16.2784C35.1376 15.8023 35.3989 15.6237 35.8707 15.5146C36.2699 15.4254 36.4078 15.4452 36.9304 15.6237Z" fill="white"/>
<path d="M92.9807 14.7216C92.1097 15.0787 90.0846 15.3068 86.5933 15.4556C85.8748 15.4953 85.2868 15.5647 85.236 15.6242C85.1126 15.7631 85.1997 15.9614 85.628 16.5764C86.0998 17.2311 86.5643 18.461 86.6587 19.2743C86.7458 20.0182 86.7603 37.4257 86.6732 39.6574C86.6224 40.9865 86.6079 41.0758 86.3466 41.8197C86.1506 42.3851 85.9328 42.7917 85.5627 43.2976C85.0836 43.9621 85.0618 44.0217 85.1852 44.1506C85.3014 44.2696 86.0707 44.2795 90.3967 44.2299C93.5033 44.1903 95.5066 44.1308 95.5501 44.0712C95.5937 44.0117 95.463 43.7737 95.1872 43.4067C94.6791 42.7322 94.3525 42.0776 94.1275 41.3039C93.888 40.4608 93.8662 38.9333 93.8735 26.1381C93.8807 16.2392 93.8662 14.6819 93.7791 14.6026C93.6339 14.4836 93.5396 14.5034 92.9807 14.7216Z" fill="white"/>
</svg>
