<svg width="200" height="37" viewBox="0 0 200 37" fill="none" xmlns="http://www.w3.org/2000/svg">
<path d="M101.089 0.0415936C100.706 0.0742153 100.099 0.15577 99.7358 0.221013C99.3729 0.294412 98.9704 0.3515 98.8384 0.3515C98.6009 0.3515 97.4329 0.734805 96.5025 1.11811C95.1366 1.68899 93.6256 2.83075 92.6358 4.05407C91.0852 5.95428 90.3131 8.3846 90.3263 11.3206C90.3329 12.1932 90.3461 12.5276 90.4319 13.1148C90.4451 13.2045 90.4715 13.4736 90.4979 13.7183C90.5837 14.493 91.2435 16.4748 91.5141 16.7765C91.5933 16.8663 91.6526 16.9804 91.6526 17.0375C91.6526 17.2251 92.6952 18.4239 93.2759 18.9051C93.8961 19.4107 94.7209 19.949 95.2488 20.1937C96.3574 20.6912 96.9446 20.9277 97.2944 21.0174C97.5121 21.0745 97.7695 21.1642 97.875 21.2131C97.974 21.262 98.3303 21.3844 98.6668 21.4741C98.9968 21.5556 99.3927 21.6698 99.5379 21.7106C99.683 21.7595 100.072 21.8737 100.396 21.9634C101.22 22.1918 102.124 22.4935 102.441 22.6321C102.586 22.7055 102.824 22.7953 102.969 22.8442C104.183 23.2275 105.589 24.2306 106.354 25.2664C107.1 26.2776 107.463 27.4928 107.535 29.2217C107.621 31.4237 106.816 33.5197 105.457 34.6369C104.922 35.0692 104.177 35.5096 103.596 35.7379C102.567 36.1294 100.745 36.2843 99.584 36.0723C99.3399 36.0234 98.9044 35.95 98.6141 35.901C98.3237 35.8521 98.0004 35.7624 97.8882 35.7053C97.7827 35.6482 97.5715 35.5585 97.4263 35.5096C96.7863 35.2731 95.7107 34.5962 95.0179 33.9764C94.358 33.3892 93.9753 32.9488 93.5266 32.28C93.3485 32.0109 93.1835 31.7744 93.1637 31.7499C93.1109 31.6928 92.5764 30.706 92.5764 30.6652C92.5764 30.6408 92.4511 30.339 92.2927 29.9883C92.1343 29.6295 91.8902 29.0831 91.7516 28.7732C91.613 28.4551 91.4613 28.0555 91.4217 27.8761C91.3755 27.6967 91.3029 27.5499 91.2567 27.5499C91.1973 27.5499 91.1709 27.8272 91.1512 28.6101C91.1116 30.7142 91.1116 36.4719 91.1577 36.5535C91.2303 36.7084 91.4085 36.6513 92.1013 36.2191L92.7876 35.7869H93.6586C94.3184 35.7869 94.6748 35.8276 95.1828 35.9744C96.7401 36.4148 97.334 36.5535 97.9212 36.635C98.2643 36.684 98.6998 36.7655 98.878 36.8063C99.4191 36.9368 101.577 36.9939 102.375 36.896C103.385 36.7737 104.223 36.6024 104.724 36.4067C104.955 36.317 105.411 36.1457 105.74 36.0315C106.064 35.9092 106.644 35.6156 107.021 35.3709C107.403 35.1263 107.74 34.9305 107.773 34.9305C107.799 34.9305 108.004 34.7837 108.215 34.6043C108.426 34.4249 108.624 34.2781 108.644 34.2781C108.73 34.2781 109.66 33.2913 110.036 32.802C110.551 32.1414 110.709 31.8967 111.112 31.179C111.296 30.8447 111.738 29.76 111.811 29.4664C111.837 29.3522 111.884 29.2217 111.91 29.181C111.943 29.132 111.983 28.9608 112.009 28.7895C112.035 28.6264 112.082 28.4633 112.115 28.447C112.141 28.4225 112.187 28.2268 112.207 28.0147C112.233 27.8027 112.299 27.4275 112.359 27.1829C112.451 26.824 112.471 26.3918 112.471 24.9809C112.471 23.464 112.451 23.1215 112.319 22.4119C111.996 20.6341 111.389 19.0764 110.67 18.163C109.871 17.1517 108.802 16.4748 106.928 15.806C106.605 15.6919 106.11 15.5125 105.839 15.4064C105.569 15.3004 105.107 15.1699 104.817 15.1128C104.526 15.0557 104.236 14.9823 104.17 14.9334C104.104 14.8926 103.8 14.8029 103.49 14.7377C103.18 14.6724 102.863 14.5827 102.778 14.542C102.692 14.5012 102.329 14.4115 101.979 14.3381C101.623 14.2647 101.214 14.1423 101.062 14.0771C100.91 14.0119 100.627 13.9058 100.429 13.8487C99.6236 13.6122 98.2577 12.9027 97.6573 12.4052C97.5319 12.3074 97.3406 12.1606 97.2416 12.0953C96.938 11.9077 95.9417 10.3745 95.9417 10.0972C95.9417 10.0565 95.9021 9.91782 95.8493 9.79549C95.7965 9.68132 95.7371 9.43665 95.7173 9.26539C95.6975 9.09412 95.6513 8.74344 95.6117 8.47431C95.493 7.73217 95.6183 6.22341 95.8493 5.59544C95.9021 5.4568 95.9417 5.28554 95.9417 5.22029C95.9417 4.95116 96.5553 3.61367 96.9314 3.0591C97.1558 2.74104 97.3603 2.47191 97.3867 2.47191C97.4131 2.47191 97.4923 2.40667 97.5649 2.32512C98.007 1.82763 99.076 1.2486 99.881 1.07733C100.072 1.03656 100.402 0.963158 100.613 0.914225C101.181 0.791894 102.751 0.81636 103.471 0.971313C104.302 1.14258 105.285 1.55035 105.985 2.00705C107.192 2.79813 108.459 4.1764 109.172 5.49758C109.35 5.82379 109.568 6.19079 109.647 6.29681C109.733 6.40283 109.799 6.54147 109.799 6.59856C109.799 6.6638 109.825 6.71274 109.858 6.71274C109.891 6.71274 109.95 6.81876 109.996 6.9574C110.043 7.08789 110.128 7.27546 110.201 7.37333L110.32 7.54459L110.386 7.22653C110.425 7.04711 110.452 5.72593 110.458 4.04591C110.458 2.46376 110.478 1.06102 110.498 0.930536C110.551 0.596163 110.425 0.327034 110.241 0.400433C110.161 0.424899 110.049 0.498298 109.996 0.563541C109.937 0.620629 109.686 0.767427 109.436 0.889759C109.079 1.05287 108.862 1.1018 108.492 1.09364C108.228 1.09364 107.984 1.06918 107.951 1.04471C107.925 1.02025 107.522 0.914225 107.067 0.800049C106.605 0.694028 106.123 0.563541 105.985 0.514609C105.853 0.465676 105.371 0.375966 104.916 0.310723C104.46 0.245479 103.86 0.15577 103.583 0.106837C102.916 -0.00733904 101.953 -0.0318053 101.089 0.0415936Z" fill="white"/>
<path d="M120.62 0.515059C120.547 0.604768 120.488 0.759722 120.488 0.857587C120.488 0.963607 120.488 9.02118 120.488 18.7751C120.482 35.6894 120.488 36.5213 120.6 36.6599C120.712 36.7986 122.415 36.8067 160.297 36.8231C195.414 36.8475 199.881 36.8312 199.934 36.7252C199.974 36.6518 200 29.7768 200 18.5304C200 2.12168 199.994 0.449815 199.895 0.400882C199.835 0.376416 182.006 0.35195 160.27 0.35195C120.838 0.35195 120.752 0.35195 120.62 0.515059ZM131.719 20.5774C132.959 20.7242 133.909 21.1238 133.995 21.5316C134.048 21.8171 133.81 22.6815 133.547 23.1545C133.322 23.5542 133.137 23.6276 132.669 23.4645C131.56 23.0811 130.623 22.9914 130.254 23.2279C130.056 23.3584 129.944 23.6602 130.016 23.8804C130.069 24.0516 130.379 24.2718 131.112 24.6633C132.075 25.1852 133.032 25.7806 133.329 26.066C133.923 26.6288 134.18 27.4117 134.134 28.5208C134.101 29.369 133.923 29.842 133.408 30.4618C132.854 31.1387 132.247 31.4812 131.211 31.7178C129.911 32.0032 127.68 31.6851 127.172 31.1469C126.988 30.9511 126.988 30.943 126.988 29.9399C126.988 28.4964 127.047 28.4148 127.878 28.7329C128.479 28.9612 129.719 29.2222 130.234 29.2222C130.94 29.2222 131.31 28.896 131.191 28.3659C131.145 28.1701 131.052 28.0641 130.716 27.8602C130.485 27.7216 130.148 27.5422 129.964 27.4688C129.779 27.3954 129.33 27.1589 128.961 26.9387C127.614 26.1313 127.139 25.3728 127.1 23.9456C127.047 22.3635 127.595 21.4745 128.967 20.8873C129.759 20.553 130.663 20.4469 131.719 20.5774ZM149.469 20.6916C149.752 20.7568 150.175 20.8873 150.419 20.9852C150.894 21.1809 151.013 21.3767 150.953 21.8497C150.907 22.184 150.584 23.1953 150.465 23.3584C150.313 23.5786 149.911 23.6112 149.475 23.44C148.644 23.1138 147.661 23.0567 147.172 23.3095C146.902 23.4481 146.44 23.9619 146.301 24.28C146.005 24.9651 145.873 26.3759 146.024 27.2649C146.13 27.8847 146.526 28.6676 146.829 28.8633C147.159 29.0754 147.667 29.2222 148.076 29.2222C148.532 29.2222 149.489 29.0183 149.871 28.847C150.023 28.7736 150.241 28.7002 150.353 28.6758C150.538 28.6432 150.557 28.6595 150.63 28.9612C150.729 29.3608 150.729 30.4618 150.637 30.8777C150.538 31.3263 150.135 31.5383 149.073 31.7014C147.403 31.9624 146.11 31.7748 145.061 31.1142C144.916 31.0245 144.566 30.6902 144.296 30.3721C143.471 29.4261 143.121 28.4148 142.989 26.6532C142.877 25.1771 143.095 24.1087 143.768 22.8854C144.401 21.7355 145.411 20.977 146.684 20.6998C147.344 20.5611 148.835 20.553 149.469 20.6916ZM184.612 20.7405C184.672 20.8302 184.738 21.0423 184.758 21.2136C184.81 21.711 184.731 23.0077 184.639 23.1219C184.586 23.1872 184.269 23.2279 183.649 23.2524C183.154 23.2606 182.686 23.2932 182.606 23.3095C182.329 23.3829 182.316 23.5786 182.316 27.5422C182.316 30.6657 182.303 31.3344 182.224 31.4731C182.138 31.6199 182.039 31.628 180.871 31.628C179.749 31.628 179.604 31.6117 179.499 31.4812C179.386 31.3426 179.38 31.0898 179.4 27.4198C179.413 24.5002 179.4 23.4726 179.34 23.3829C179.281 23.2932 179.03 23.2687 178.152 23.2687H177.044L177.004 22.918C176.985 22.7305 176.971 22.1514 176.985 21.6376L177.004 20.6998L179.974 20.659C181.61 20.6345 183.293 20.61 183.722 20.5937C184.428 20.5774 184.507 20.5937 184.612 20.7405ZM187.819 20.6916C188.096 20.8302 188.182 20.9934 188.816 22.494C189.363 23.7988 189.594 24.2474 189.733 24.2474C189.858 24.2474 190.063 23.9293 190.281 23.3911C191.026 21.5398 191.297 20.92 191.382 20.8302C191.6 20.6019 194.094 20.504 194.259 20.7079C194.332 20.7976 194.213 21.4582 194.094 21.6376C194.048 21.7029 193.87 22.0536 193.699 22.4124C193.527 22.7712 193.316 23.1953 193.237 23.3503C193.118 23.5786 192.273 25.2831 192.016 25.7969C191.983 25.8621 191.811 26.2128 191.633 26.5717C191.455 26.9305 191.297 27.2894 191.27 27.3627C191.25 27.4361 191.211 28.374 191.191 29.4424C191.158 30.9675 191.125 31.4078 191.053 31.5057C190.921 31.6688 188.506 31.6851 188.374 31.522C188.308 31.4405 188.281 30.9022 188.248 29.4424L188.215 27.4688L188.004 26.9713C187.76 26.3759 187.192 25.2016 186.044 22.9425C185.312 21.4908 185.021 20.8547 185.021 20.7079C185.021 20.6508 185.589 20.61 186.658 20.5937C187.338 20.5856 187.661 20.61 187.819 20.6916ZM141.61 20.7976C141.709 20.9363 141.742 22.7712 141.656 23.0404C141.61 23.1709 141.485 23.1872 140.402 23.1872C139.109 23.1872 138.72 23.2524 138.581 23.4889C138.462 23.6846 138.535 24.492 138.687 24.6307C138.759 24.7041 139.122 24.7367 139.94 24.7367C141.049 24.7367 141.293 24.7856 141.419 25.014C141.445 25.0629 141.471 25.5115 141.471 26.0089C141.471 27.2975 141.564 27.216 139.993 27.2486C138.759 27.273 138.693 27.2812 138.601 27.4525C138.462 27.6971 138.462 28.7573 138.608 28.9286C138.72 29.0754 138.693 29.0754 140.29 29.0591C141.26 29.0509 141.471 29.0672 141.557 29.1733C141.689 29.3364 141.755 30.0214 141.722 30.8207C141.702 31.3181 141.676 31.4649 141.57 31.5546C141.392 31.7178 135.849 31.6851 135.717 31.522C135.651 31.4405 135.625 30.3558 135.612 26.2618C135.605 23.4237 135.612 21.026 135.632 20.9281C135.658 20.7976 135.724 20.7405 135.882 20.7161C135.995 20.6998 137.314 20.6753 138.806 20.6753C141.26 20.659 141.531 20.6753 141.61 20.7976ZM155.302 20.8547C155.381 20.9852 155.394 21.605 155.394 24.3615C155.394 26.4738 155.421 27.8276 155.467 28.0233C155.559 28.4474 155.942 28.9531 156.239 29.0591C156.951 29.2956 157.842 29.0428 158.1 28.5208C158.324 28.0804 158.364 27.4688 158.364 24.1658C158.37 22.4369 158.397 20.977 158.423 20.9118C158.509 20.7405 158.977 20.6671 160.033 20.659C160.917 20.659 161.016 20.6753 161.135 20.8221C161.26 20.977 161.267 21.0912 161.267 24.2637C161.267 27.8765 161.221 28.5045 160.897 29.3608C160.482 30.4373 159.366 31.3997 158.265 31.6362C158.119 31.6607 157.941 31.7014 157.869 31.7178C157.123 31.9053 155.566 31.7912 154.866 31.4976C153.679 30.9919 152.92 30.0377 152.583 28.6024C152.484 28.1864 152.464 27.6237 152.445 24.5491C152.418 21.9231 152.431 20.9444 152.491 20.8629C152.596 20.6998 152.834 20.6753 154.094 20.6916C155.117 20.6998 155.216 20.7161 155.302 20.8547ZM167.661 20.7405C169.145 20.977 170.267 21.76 170.65 22.8446C171.039 23.9619 170.716 25.4136 169.904 26.2128C169.357 26.7592 169.297 26.849 169.343 27.1099C169.363 27.2404 169.64 27.7624 169.957 28.2762C171.679 31.0164 171.851 31.3426 171.706 31.522C171.58 31.677 169.086 31.7178 168.862 31.571C168.776 31.5139 168.538 31.1469 168.334 30.7473C167.595 29.3201 166.935 28.1701 166.763 27.9989C166.671 27.9092 166.526 27.8358 166.447 27.8358C166.143 27.8358 166.117 27.9907 166.117 29.7197C166.117 31.1632 166.104 31.3508 165.998 31.4812C165.892 31.6117 165.741 31.628 164.639 31.628C163.675 31.628 163.372 31.6036 163.286 31.5139C163.187 31.4078 163.18 30.9756 163.194 26.1557C163.207 23.2769 163.233 20.8955 163.26 20.8629C163.286 20.8302 163.405 20.7732 163.524 20.7405C163.853 20.6427 167.034 20.6508 167.661 20.7405ZM175.599 20.8058C175.724 20.9607 175.724 31.3671 175.599 31.522C175.473 31.677 172.992 31.677 172.867 31.522C172.801 31.4405 172.775 30.3395 172.742 26.2618C172.715 23.4318 172.722 21.026 172.755 20.9281C172.821 20.6998 172.992 20.6753 174.411 20.6916C175.216 20.6998 175.539 20.7242 175.599 20.8058Z" fill="white"/>
<path d="M166.48 23.0904C166.177 23.1475 166.15 23.2372 166.15 24.175C166.15 25.4554 166.23 25.5288 167.252 25.1782C167.675 25.0314 167.8 24.7949 167.8 24.1343C167.8 23.4981 167.635 23.2779 167.068 23.1556C166.837 23.1067 166.573 23.0741 166.48 23.0904Z" fill="white"/>
<path d="M0.0923791 0.621645C0.039591 0.654267 0 0.727666 0 0.768443C0 0.817376 0.224349 1.20068 0.501486 1.62476C1.35269 2.94594 1.70901 3.76964 2.57342 6.38754C2.72518 6.86055 2.90994 7.39881 2.97593 7.58639C3.04851 7.78212 3.1013 7.96969 3.1013 8.01862C3.1013 8.06756 3.12769 8.16542 3.16728 8.24698C3.23987 8.39377 4.4276 12.0311 4.75752 13.1158C4.8697 13.4746 5.00167 13.8742 5.04786 14.0129C5.09405 14.1434 5.45037 15.2443 5.83968 16.4595C6.22899 17.6665 6.58531 18.7675 6.6315 18.9061C6.68429 19.0366 6.80306 19.4036 6.89544 19.7217C6.99442 20.0316 7.12639 20.4475 7.19897 20.6351C7.26495 20.8308 7.32434 21.0021 7.32434 21.0265C7.32434 21.051 7.59488 21.9073 7.92481 22.9268C8.26133 23.9462 8.57146 24.9248 8.62425 25.1043C8.67703 25.2837 8.74962 25.4631 8.78261 25.5039C8.8156 25.5528 8.842 25.6425 8.842 25.7078C8.8486 25.7812 8.90138 25.985 8.97397 26.1645C9.04655 26.3439 9.09934 26.5233 9.10594 26.5559C9.10594 26.5967 9.14553 26.7435 9.19832 26.8821C9.2511 27.0289 9.56783 28.0076 9.89776 29.0596C10.2343 30.1117 10.5246 31.0333 10.5576 31.0985C10.584 31.1719 10.749 31.6694 10.9205 32.1995C11.0921 32.7377 11.29 33.3331 11.356 33.5207C11.4286 33.7082 11.4814 33.8958 11.4814 33.9366C11.4814 33.9692 11.6002 34.3525 11.7453 34.7685C11.8905 35.1844 12.0093 35.5677 12.0093 35.6003C12.0093 35.6411 12.0819 35.8776 12.1742 36.1223C12.2666 36.3669 12.3392 36.5953 12.3392 36.636C12.3392 36.6687 12.4052 36.7747 12.491 36.8644C12.6493 37.0438 12.8341 37.0438 12.9727 36.8726C13.0452 36.7747 13.7249 34.8908 14.2 33.4636C14.3122 33.1292 14.4441 32.7377 14.4903 32.5909C14.5431 32.4523 14.5827 32.3137 14.5827 32.281C14.5827 32.2484 14.6421 32.069 14.7147 31.8814C14.7807 31.6939 15.0842 30.8294 15.3745 29.9567C16.1531 27.6406 16.3313 27.1187 17.2749 24.411C17.8292 22.837 18.7464 20.1621 19.2676 18.6207C19.7493 17.1935 19.9341 16.6552 20.0661 16.2964C20.132 16.117 20.363 15.4401 20.5873 14.7876C20.8117 14.1352 21.0492 13.4583 21.1152 13.2789C21.1812 13.0995 21.3198 12.7162 21.4122 12.4226C21.6101 11.8354 21.7487 11.4439 21.874 11.0769C21.9202 10.9383 22.0984 10.4082 22.27 9.89437C22.6263 8.8097 23.174 7.21124 23.4841 6.37123C23.5567 6.15918 23.6227 5.96345 23.6227 5.93899C23.6227 5.92268 23.715 5.65355 23.8272 5.3518C24.3023 4.06324 25.4306 2.2772 26.295 1.44534C26.4798 1.27408 26.658 1.07019 26.7042 1.00495C26.8097 0.841842 26.8097 0.597179 26.7108 0.589024C26.0707 0.540091 19.3006 0.629801 19.1225 0.686889C18.8189 0.784754 18.8387 0.890775 19.2808 1.4535C20.132 2.51371 20.3498 4.09586 20.0595 7.1623C19.8615 9.32349 19.492 11.3868 18.7662 14.3799C18.5484 15.2851 17.816 17.9683 17.7368 18.1558C17.7038 18.2374 17.453 19.0855 17.1825 20.0316C16.912 20.9858 16.5754 22.0623 16.4237 22.4374C16.1795 23.0572 16.1399 23.1143 15.9816 23.0899C15.8496 23.0736 15.7704 22.9838 15.678 22.7392C15.5395 22.3803 15.0842 20.7656 14.9456 20.1294C14.8928 19.9011 14.7279 19.2976 14.5827 18.7838C14.4309 18.27 14.2528 17.642 14.1868 17.3974C14.1208 17.1527 13.9888 16.6879 13.9031 16.3779C13.5863 15.277 12.161 10.2451 11.5276 7.97785C10.3333 3.71255 10.2277 3.27216 10.2277 2.59526C10.2277 1.99991 10.4058 1.64923 10.8941 1.28224C11.2702 0.98864 11.4022 0.727666 11.2043 0.637956C11.0525 0.572713 0.191357 0.556402 0.0923791 0.621645Z" fill="white"/>
<path d="M81.7879 3.3378C80.2703 3.59877 79.2805 4.43878 78.8516 5.85783C78.647 6.53473 78.6404 7.4726 78.845 8.10873C79.0561 8.78563 79.6368 9.53593 80.2439 9.91108C80.9169 10.3352 81.4052 10.482 82.1508 10.4738C83.1142 10.4738 83.7345 10.221 84.4273 9.56855C86.2815 7.80697 85.7008 4.47956 83.3782 3.56615C82.9031 3.38673 82.1574 3.27255 81.7879 3.3378Z" fill="white"/>
<path d="M69.8385 6.77858C69.3568 7.21081 68.4462 8.04267 67.7995 8.62986C66.6316 9.69007 62.3954 13.5802 62.0984 13.8656C61.9797 13.9798 61.9533 14.0695 61.9863 14.2C62.0324 14.3631 62.0852 14.3794 62.4745 14.3876C63.8008 14.4121 64.0318 14.4447 64.1506 14.6241C64.21 14.7138 64.2825 15.0237 64.3089 15.3418C64.3353 15.6435 64.3419 19.6315 64.3221 24.2067C64.3023 28.7819 64.3089 32.7536 64.3353 33.0391C64.4805 34.4989 65.4901 35.763 67.0275 36.4154C67.7468 36.7172 68.2614 36.8069 69.2842 36.8069C70.5247 36.8069 71.4947 36.448 72.5769 35.5836C73.3687 34.9474 74.1143 33.9362 74.1341 33.4468C74.1473 33.2511 74.1275 33.2266 74.0153 33.2674C73.9427 33.3 73.7448 33.4387 73.5798 33.5855C73.052 34.0503 72.6758 34.2216 72.2997 34.1645C71.9038 34.0993 71.4749 33.8791 71.3033 33.6426C71.0064 33.2266 70.9998 33.0391 70.9998 23.7908C70.9998 18.9873 71.0196 14.9422 71.0394 14.8035C71.0592 14.6649 71.1186 14.5344 71.1714 14.5099C71.2176 14.4855 71.5937 14.4447 72.0028 14.4121C72.9068 14.3468 73.2037 14.2408 73.6458 13.8412C74.1473 13.3926 74.4178 12.5771 74.1407 12.3569C74.1011 12.3243 73.4083 12.2835 72.6033 12.259C71.7982 12.2346 71.1186 12.1856 71.0856 12.153C71.0592 12.1122 71.0196 10.7421 70.9998 9.11103C70.9734 6.58284 70.9536 6.12614 70.8678 6.0609C70.8151 6.02012 70.7557 5.97934 70.7359 5.97934C70.7161 5.97934 70.3136 6.33818 69.8385 6.77858Z" fill="white"/>
<path d="M57.0901 11.5987C56.0278 11.982 55.3679 12.5366 54.4639 13.8088C54.2132 14.1595 53.9294 14.4613 53.8503 14.4613C53.7315 14.4613 53.7117 14.3063 53.6457 13.0178C53.6061 12.3164 53.5533 11.7047 53.5203 11.664C53.4477 11.5742 53.2234 11.6069 52.1808 11.8352C51.3296 12.0309 50.1155 12.1451 48.2349 12.2185C45.8727 12.3164 45.8529 12.3164 45.7407 12.4469C45.6483 12.561 45.6615 12.6018 45.8793 12.871C46.4599 13.5886 46.7173 14.0453 46.9614 14.7956C47.067 15.13 47.0802 15.7824 47.0934 24.0602C47.1198 33.9854 47.133 33.6592 46.6777 34.6704C46.5391 34.9722 46.2686 35.4126 46.0706 35.6491C45.8793 35.8856 45.7275 36.1303 45.7473 36.1873C45.7671 36.2444 45.8991 36.3178 46.0376 36.3341C46.4995 36.4157 55.1106 36.3341 55.1766 36.2526C55.2161 36.2037 55.0644 35.959 54.7477 35.5757C54.068 34.7438 53.8041 34.0832 53.7051 32.9986C53.6655 32.4848 53.6457 29.9077 53.6589 25.7565C53.6853 18.6532 53.6721 18.9386 54.1076 17.9029C54.3979 17.2178 54.4375 17.1526 54.807 16.6959C55.4405 15.9129 56.2521 15.6193 57.0637 15.8803C57.2947 15.9537 57.7566 16.1821 58.0997 16.3859C58.588 16.6795 58.7397 16.7366 58.8453 16.6714C58.9179 16.6225 59.1753 16.0353 59.4524 15.3013C59.7163 14.5918 60.0463 13.7191 60.1782 13.3603C60.3168 13.0014 60.4422 12.6263 60.462 12.5203C60.5213 12.2185 60.2706 11.9494 59.7163 11.7129C59.0433 11.4356 57.717 11.3785 57.0901 11.5987Z" fill="white"/>
<path d="M32.0421 11.9736C31.7122 12.0388 31.3493 12.1367 31.2239 12.1856C31.1052 12.2346 30.9666 12.2835 30.927 12.2917C30.696 12.3487 30.2012 12.5363 29.825 12.7157C29.4489 12.887 28.2282 13.6781 28.0237 13.8901C27.9775 13.9309 27.6871 14.2245 27.377 14.5344C26.308 15.6028 25.4502 16.9566 24.7508 18.6692C23.9062 20.7488 23.5103 23.4157 23.6884 25.7971C23.9392 29.1326 24.7904 31.5793 26.4004 33.6018C27.6079 35.1106 28.7957 35.9343 30.5839 36.4888C31.3163 36.7172 31.4945 36.7416 32.8604 36.7824C34.1669 36.8232 34.4572 36.8069 35.2688 36.6519C36.7865 36.3583 37.7037 35.975 38.6209 35.2329C39.703 34.3603 40.6796 32.8841 41.3724 31.0655C41.9399 29.5893 42.0983 28.9369 41.9399 28.7412C41.8475 28.6351 41.8079 28.6596 41.5572 29.0266C40.6136 30.3641 40.0131 30.935 39.0234 31.408C38.0072 31.9055 37.7564 31.9544 36.3906 31.9544C35.0577 31.9463 34.4506 31.8484 33.7182 31.4895C33.1705 31.2286 32.3061 30.4946 31.9564 29.9889C31.1645 28.8635 30.6499 27.1998 30.4519 25.1446C30.2869 23.432 30.3397 22.7388 30.6367 22.6654C30.7158 22.6409 33.2629 22.6001 36.2916 22.5757C41.7551 22.5267 41.8013 22.5267 41.9201 22.3555C41.9861 22.2658 42.0323 22.0537 42.0323 21.8743C42.0323 21.3034 41.8343 19.6479 41.6628 18.7997C41.4912 17.9434 41.0359 16.4754 40.8709 16.247C40.8182 16.1818 40.7786 16.0921 40.7786 16.0513C40.7786 15.9371 40.1319 14.9177 39.8416 14.5752C39.5116 14.1837 38.8716 13.5884 38.5219 13.3356C37.7103 12.7647 36.2124 12.1612 35.3018 12.0552C35.0643 12.0225 34.7871 11.9899 34.6749 11.9654C34.1141 11.8594 32.5898 11.8594 32.0421 11.9736ZM33.573 12.8462C33.9557 12.9686 34.4374 13.515 34.7013 14.1348C35.2028 15.2929 35.5657 17.976 35.5657 20.545C35.5657 21.3034 35.5064 21.4502 35.1368 21.5562C34.7805 21.6623 30.7752 21.6623 30.6235 21.5562C30.3661 21.3931 30.3331 21.0587 30.3793 19.4277C30.4519 16.7608 30.5641 15.7496 30.894 14.7057C31.092 14.094 31.2767 13.7433 31.5934 13.3845C31.9432 12.993 32.1807 12.8462 32.6096 12.7565C32.9725 12.6831 33.0979 12.6994 33.573 12.8462Z" fill="white"/>
<path d="M84.528 12.1046C83.7361 12.3982 81.8951 12.5858 78.7213 12.7081C78.068 12.7407 77.5335 12.7978 77.4873 12.8468C77.3752 12.9609 77.4544 13.124 77.8437 13.6297C78.2726 14.1679 78.6949 15.1792 78.7807 15.848C78.8598 16.4596 78.873 30.7724 78.7938 32.6074C78.7477 33.7002 78.7345 33.7736 78.4969 34.3853C78.3188 34.8501 78.1208 35.1845 77.7843 35.6004C77.3488 36.1468 77.329 36.1958 77.4412 36.3018C77.5467 36.3996 78.2462 36.4078 82.1789 36.367C85.003 36.3344 86.8242 36.2855 86.8638 36.2365C86.9034 36.1876 86.7846 35.9919 86.5339 35.6901C86.072 35.1356 85.7751 34.5973 85.5705 33.9612C85.3528 33.268 85.333 32.012 85.3396 21.4915C85.3462 13.3524 85.333 12.072 85.2538 12.0067C85.1218 11.9089 85.036 11.9252 84.528 12.1046Z" fill="white"/>
</svg>
