<svg width="225" height="188" viewBox="0 0 225 188" fill="none" xmlns="http://www.w3.org/2000/svg">
<path d="M52.3928 101.912L27.0974 87.1622C26.7264 86.9459 26.2735 86.9459 25.9025 87.1622L0.60709 101.912C0.231272 102.131 0 102.539 0 102.979V130.021C0 130.461 0.231272 130.869 0.60709 131.088L25.9025 145.838C26.088 145.946 26.2928 146 26.5 146C26.7072 146 26.912 145.946 27.0975 145.838L52.3929 131.088C52.7687 130.869 53 130.461 53 130.021V102.979C52.9999 102.539 52.7686 102.131 52.3928 101.912Z" fill="#040F0F" fill-opacity="0.7"/>
<path d="M224.393 73.7535L199.097 59.0035C198.726 58.7872 198.273 58.7872 197.903 59.0035L172.607 73.7535C172.231 73.9723 172 74.3804 172 74.8205V101.862C172 102.302 172.231 102.71 172.607 102.929L197.903 117.679C198.088 117.787 198.293 117.841 198.5 117.841C198.707 117.841 198.912 117.787 199.097 117.679L224.393 102.929C224.769 102.71 225 102.302 225 101.862V74.8205C225 74.3804 224.769 73.9723 224.393 73.7535Z" fill="#040F0F" fill-opacity="0.7"/>
<g filter="url(#filter0_d_4464_223)">
<path d="M47.5906 54.2789L113.85 16.4164C114.822 15.8612 116.008 15.8612 116.98 16.4164L183.24 54.2789C184.224 54.8406 184.83 55.888 184.83 57.0177V126.432C184.83 127.562 184.224 128.609 183.24 129.171L116.98 167.034C116.494 167.311 115.958 167.45 115.415 167.45C114.872 167.45 114.336 167.311 113.85 167.034L47.5903 129.171C46.6059 128.609 46.0001 127.562 46.0001 126.432V57.0177C46.0004 55.888 46.6062 54.8406 47.5906 54.2789Z" fill="#040F0F"/>
</g>
<path d="M115.523 118.022C115.339 118.039 115.048 118.082 114.874 118.117C114.699 118.156 114.506 118.186 114.443 118.186C114.329 118.186 113.768 118.389 113.322 118.591C112.666 118.893 111.941 119.497 111.466 120.143C110.721 121.148 110.351 122.433 110.357 123.985C110.36 124.446 110.367 124.623 110.408 124.933C110.414 124.981 110.427 125.123 110.439 125.252C110.481 125.662 110.797 126.71 110.927 126.869C110.965 126.916 110.994 126.977 110.994 127.007C110.994 127.106 111.494 127.74 111.773 127.994C112.071 128.262 112.466 128.546 112.72 128.676C113.252 128.938 113.534 129.064 113.702 129.111C113.806 129.141 113.93 129.189 113.98 129.214C114.028 129.24 114.199 129.305 114.36 129.352C114.519 129.395 114.709 129.456 114.779 129.477C114.848 129.503 115.035 129.564 115.19 129.611C115.586 129.732 116.02 129.891 116.172 129.965C116.242 130.003 116.356 130.051 116.426 130.077C117.008 130.279 117.683 130.81 118.05 131.357C118.408 131.892 118.582 132.534 118.617 133.448C118.658 134.612 118.272 135.72 117.62 136.311C117.363 136.539 117.005 136.772 116.726 136.893C116.232 137.1 115.358 137.182 114.801 137.07C114.684 137.044 114.474 137.005 114.335 136.979C114.196 136.953 114.041 136.906 113.987 136.876C113.936 136.846 113.835 136.798 113.765 136.772C113.458 136.647 112.942 136.289 112.609 135.962C112.292 135.651 112.109 135.418 111.893 135.065C111.808 134.923 111.728 134.798 111.719 134.785C111.694 134.755 111.437 134.233 111.437 134.211C111.437 134.198 111.377 134.039 111.301 133.853C111.225 133.664 111.108 133.375 111.041 133.211C110.975 133.043 110.902 132.832 110.883 132.737C110.861 132.642 110.826 132.564 110.804 132.564C110.775 132.564 110.762 132.711 110.753 133.125C110.734 134.237 110.734 137.281 110.756 137.324C110.791 137.406 110.876 137.376 111.209 137.147L111.538 136.919H111.956C112.273 136.919 112.444 136.94 112.688 137.018C113.436 137.251 113.721 137.324 114.003 137.367C114.167 137.393 114.376 137.436 114.462 137.458C114.722 137.527 115.757 137.557 116.14 137.505C116.625 137.441 117.027 137.35 117.268 137.246C117.379 137.199 117.597 137.109 117.756 137.048C117.911 136.984 118.19 136.828 118.37 136.699C118.554 136.57 118.715 136.466 118.731 136.466C118.744 136.466 118.842 136.389 118.944 136.294C119.045 136.199 119.14 136.121 119.149 136.121C119.191 136.121 119.637 135.6 119.818 135.341C120.065 134.992 120.141 134.862 120.334 134.483C120.423 134.306 120.635 133.733 120.67 133.578C120.682 133.517 120.705 133.448 120.717 133.427C120.733 133.401 120.752 133.31 120.765 133.22C120.777 133.133 120.8 133.047 120.815 133.039C120.828 133.026 120.85 132.922 120.86 132.81C120.872 132.698 120.904 132.5 120.933 132.37C120.977 132.181 120.986 131.952 120.986 131.206C120.986 130.404 120.977 130.223 120.914 129.848C120.758 128.908 120.467 128.085 120.122 127.602C119.738 127.067 119.225 126.71 118.326 126.356C118.171 126.296 117.933 126.201 117.803 126.145C117.673 126.089 117.452 126.02 117.312 125.99C117.173 125.959 117.034 125.921 117.002 125.895C116.97 125.873 116.825 125.826 116.676 125.791C116.527 125.757 116.375 125.709 116.334 125.688C116.292 125.666 116.118 125.619 115.95 125.58C115.779 125.541 115.583 125.476 115.51 125.442C115.437 125.407 115.301 125.351 115.206 125.321C114.82 125.196 114.164 124.821 113.876 124.558C113.816 124.506 113.724 124.429 113.676 124.394C113.531 124.295 113.052 123.485 113.052 123.338C113.052 123.316 113.033 123.243 113.008 123.179C112.983 123.118 112.954 122.989 112.945 122.898C112.935 122.808 112.913 122.622 112.894 122.48C112.837 122.088 112.897 121.29 113.008 120.958C113.033 120.885 113.052 120.794 113.052 120.76C113.052 120.618 113.347 119.91 113.527 119.617C113.635 119.449 113.733 119.307 113.746 119.307C113.759 119.307 113.797 119.272 113.832 119.229C114.044 118.966 114.557 118.66 114.943 118.57C115.035 118.548 115.193 118.509 115.295 118.483C115.567 118.419 116.321 118.432 116.666 118.514C117.065 118.604 117.537 118.82 117.873 119.061C118.453 119.479 119.061 120.208 119.403 120.906C119.488 121.079 119.593 121.273 119.631 121.329C119.672 121.385 119.704 121.458 119.704 121.488C119.704 121.523 119.716 121.549 119.732 121.549C119.748 121.549 119.777 121.605 119.799 121.678C119.821 121.747 119.862 121.846 119.897 121.898L119.954 121.989L119.986 121.82C120.005 121.726 120.017 121.027 120.02 120.139C120.02 119.303 120.03 118.561 120.039 118.492C120.065 118.315 120.005 118.173 119.916 118.212C119.878 118.225 119.824 118.264 119.799 118.298C119.77 118.328 119.65 118.406 119.529 118.47C119.358 118.557 119.254 118.583 119.077 118.578C118.95 118.578 118.833 118.565 118.817 118.552C118.804 118.539 118.611 118.483 118.392 118.423C118.171 118.367 117.939 118.298 117.873 118.272C117.81 118.246 117.578 118.199 117.36 118.164C117.141 118.13 116.853 118.082 116.72 118.057C116.4 117.996 115.938 117.983 115.523 118.022Z" fill="#2D3A3A" fill-opacity="0.4"/>
<path d="M124.898 118.272C124.863 118.319 124.834 118.401 124.834 118.453C124.834 118.509 124.834 122.769 124.834 127.925C124.831 136.867 124.834 137.307 124.888 137.38C124.942 137.453 125.759 137.458 143.943 137.466C160.799 137.479 162.943 137.47 162.968 137.414C162.987 137.376 163 133.741 163 127.796C163 119.121 162.997 118.237 162.949 118.212C162.921 118.199 154.363 118.186 143.93 118.186C125.002 118.186 124.961 118.186 124.898 118.272ZM130.225 128.878C130.821 128.956 131.277 129.167 131.318 129.382C131.343 129.533 131.229 129.99 131.102 130.24C130.995 130.452 130.906 130.49 130.681 130.404C130.149 130.202 129.699 130.154 129.522 130.279C129.427 130.348 129.373 130.508 129.408 130.624C129.433 130.715 129.582 130.831 129.934 131.038C130.396 131.314 130.855 131.629 130.998 131.779C131.283 132.077 131.406 132.491 131.384 133.077C131.368 133.526 131.283 133.776 131.036 134.103C130.77 134.461 130.478 134.642 129.981 134.767C129.357 134.918 128.287 134.75 128.043 134.465C127.954 134.362 127.954 134.358 127.954 133.827C127.954 133.064 127.983 133.021 128.382 133.189C128.67 133.31 129.265 133.448 129.512 133.448C129.851 133.448 130.029 133.276 129.972 132.995C129.95 132.892 129.905 132.836 129.744 132.728C129.633 132.655 129.471 132.56 129.383 132.521C129.294 132.482 129.079 132.357 128.901 132.241C128.255 131.814 128.027 131.413 128.008 130.659C127.983 129.822 128.246 129.352 128.904 129.042C129.284 128.865 129.718 128.809 130.225 128.878ZM138.745 128.938C138.881 128.973 139.084 129.042 139.201 129.093C139.429 129.197 139.486 129.3 139.458 129.551C139.436 129.727 139.28 130.262 139.223 130.348C139.15 130.465 138.957 130.482 138.748 130.391C138.349 130.219 137.877 130.189 137.643 130.322C137.513 130.396 137.291 130.667 137.225 130.835C137.082 131.197 137.019 131.943 137.092 132.413C137.142 132.741 137.332 133.155 137.478 133.258C137.636 133.37 137.88 133.448 138.077 133.448C138.295 133.448 138.755 133.34 138.938 133.25C139.011 133.211 139.116 133.172 139.169 133.159C139.258 133.142 139.268 133.15 139.302 133.31C139.35 133.521 139.35 134.103 139.306 134.323C139.258 134.56 139.065 134.672 138.555 134.759C137.754 134.897 137.133 134.797 136.629 134.448C136.56 134.401 136.392 134.224 136.262 134.056C135.866 133.556 135.698 133.021 135.635 132.09C135.581 131.31 135.685 130.745 136.009 130.098C136.313 129.49 136.797 129.089 137.408 128.943C137.725 128.869 138.441 128.865 138.745 128.938ZM155.614 128.964C155.642 129.012 155.674 129.124 155.684 129.214C155.709 129.477 155.671 130.163 155.627 130.223C155.601 130.258 155.449 130.279 155.152 130.292C154.914 130.296 154.689 130.314 154.651 130.322C154.518 130.361 154.512 130.465 154.512 132.56C154.512 134.211 154.505 134.565 154.467 134.638C154.426 134.716 154.379 134.72 153.818 134.72C153.28 134.72 153.21 134.711 153.159 134.642C153.105 134.569 153.102 134.435 153.112 132.495C153.118 130.952 153.112 130.408 153.083 130.361C153.055 130.314 152.934 130.301 152.513 130.301H151.981L151.962 130.115C151.953 130.016 151.946 129.71 151.953 129.438L151.962 128.943L153.387 128.921C154.173 128.908 154.981 128.895 155.186 128.887C155.525 128.878 155.563 128.887 155.614 128.964ZM157.153 128.938C157.286 129.012 157.327 129.098 157.632 129.891C157.894 130.581 158.005 130.818 158.072 130.818C158.132 130.818 158.23 130.65 158.335 130.365C158.693 129.387 158.822 129.059 158.864 129.012C158.968 128.891 160.165 128.839 160.245 128.947C160.279 128.994 160.222 129.344 160.165 129.438C160.143 129.473 160.058 129.658 159.975 129.848C159.893 130.038 159.792 130.262 159.754 130.344C159.697 130.465 159.291 131.366 159.168 131.637C159.152 131.672 159.069 131.857 158.984 132.047C158.898 132.236 158.822 132.426 158.81 132.465C158.8 132.504 158.781 133 158.772 133.564C158.756 134.371 158.74 134.603 158.705 134.655C158.642 134.741 157.483 134.75 157.419 134.664C157.388 134.621 157.375 134.336 157.359 133.564L157.343 132.521L157.242 132.258C157.125 131.943 156.852 131.322 156.301 130.128C155.95 129.361 155.81 129.025 155.81 128.947C155.81 128.917 156.083 128.895 156.596 128.887C156.922 128.882 157.077 128.895 157.153 128.938ZM134.973 128.994C135.02 129.068 135.036 130.038 134.995 130.18C134.973 130.249 134.913 130.258 134.393 130.258C133.772 130.258 133.586 130.292 133.519 130.417C133.462 130.521 133.497 130.947 133.57 131.021C133.605 131.059 133.779 131.077 134.171 131.077C134.704 131.077 134.821 131.103 134.881 131.223C134.894 131.249 134.906 131.486 134.906 131.749C134.906 132.43 134.951 132.387 134.197 132.405C133.605 132.418 133.573 132.422 133.529 132.512C133.462 132.642 133.462 133.202 133.532 133.293C133.586 133.37 133.573 133.37 134.339 133.362C134.805 133.357 134.906 133.366 134.947 133.422C135.011 133.508 135.042 133.87 135.027 134.293C135.017 134.556 135.004 134.634 134.954 134.681C134.868 134.767 132.208 134.75 132.144 134.664C132.113 134.621 132.1 134.047 132.094 131.883C132.091 130.383 132.094 129.115 132.103 129.063C132.116 128.994 132.148 128.964 132.224 128.951C132.277 128.943 132.911 128.93 133.627 128.93C134.805 128.921 134.935 128.93 134.973 128.994ZM141.545 129.025C141.583 129.093 141.589 129.421 141.589 130.878C141.589 131.995 141.602 132.711 141.624 132.814C141.668 133.038 141.852 133.306 141.995 133.362C142.337 133.487 142.764 133.353 142.888 133.077C142.996 132.844 143.015 132.521 143.015 130.775C143.018 129.861 143.03 129.089 143.043 129.055C143.084 128.964 143.309 128.925 143.816 128.921C144.24 128.921 144.288 128.93 144.345 129.007C144.405 129.089 144.408 129.15 144.408 130.827C144.408 132.737 144.386 133.069 144.231 133.521C144.031 134.09 143.496 134.599 142.967 134.724C142.897 134.737 142.812 134.759 142.777 134.767C142.419 134.866 141.672 134.806 141.336 134.651C140.766 134.384 140.402 133.879 140.24 133.12C140.192 132.9 140.183 132.603 140.173 130.978C140.161 129.589 140.167 129.072 140.196 129.029C140.246 128.943 140.36 128.93 140.965 128.938C141.456 128.943 141.504 128.951 141.545 129.025ZM147.477 128.964C148.19 129.089 148.728 129.503 148.912 130.076C149.099 130.667 148.944 131.435 148.554 131.857C148.291 132.146 148.263 132.193 148.285 132.331C148.294 132.4 148.427 132.676 148.579 132.948C149.406 134.396 149.488 134.569 149.419 134.664C149.359 134.746 148.161 134.767 148.054 134.69C148.012 134.659 147.898 134.465 147.8 134.254C147.446 133.5 147.129 132.892 147.046 132.801C147.002 132.754 146.932 132.715 146.894 132.715C146.749 132.715 146.736 132.797 146.736 133.711C146.736 134.474 146.73 134.573 146.679 134.642C146.628 134.711 146.556 134.72 146.027 134.72C145.564 134.72 145.418 134.707 145.377 134.659C145.33 134.603 145.327 134.375 145.333 131.827C145.339 130.305 145.352 129.046 145.365 129.029C145.377 129.012 145.434 128.981 145.491 128.964C145.65 128.912 147.176 128.917 147.477 128.964ZM151.287 128.999C151.348 129.081 151.348 134.582 151.287 134.664C151.227 134.746 150.036 134.746 149.976 134.664C149.945 134.621 149.932 134.039 149.916 131.883C149.903 130.387 149.907 129.115 149.922 129.063C149.954 128.943 150.036 128.93 150.717 128.938C151.104 128.943 151.259 128.956 151.287 128.999Z" fill="#2D3A3A" fill-opacity="0.4"/>
<path d="M146.91 130.206C146.765 130.236 146.752 130.284 146.752 130.78C146.752 131.457 146.79 131.496 147.281 131.31C147.484 131.233 147.544 131.108 147.544 130.758C147.544 130.422 147.465 130.305 147.192 130.241C147.081 130.215 146.955 130.197 146.91 130.206Z" fill="#2D3A3A" fill-opacity="0.4"/>
<path d="M67.0443 118.329C67.019 118.346 67 118.385 67 118.406C67 118.432 67.1077 118.635 67.2407 118.859C67.6493 119.557 67.8203 119.993 68.2352 121.377C68.3081 121.627 68.3968 121.911 68.4284 122.011C68.4633 122.114 68.4886 122.213 68.4886 122.239C68.4886 122.265 68.5013 122.317 68.5203 122.36C68.5551 122.437 69.1252 124.36 69.2836 124.934C69.3375 125.123 69.4008 125.335 69.423 125.408C69.4451 125.477 69.6162 126.059 69.803 126.701C69.9899 127.339 70.1609 127.921 70.1831 127.995C70.2085 128.064 70.2655 128.258 70.3098 128.426C70.3573 128.59 70.4207 128.81 70.4555 128.909C70.4872 129.012 70.5157 129.103 70.5157 129.116C70.5157 129.129 70.6455 129.581 70.8039 130.12C70.9654 130.659 71.1143 131.177 71.1396 131.271C71.165 131.366 71.1998 131.461 71.2156 131.483C71.2315 131.509 71.2442 131.556 71.2442 131.59C71.2473 131.629 71.2727 131.737 71.3075 131.832C71.3423 131.927 71.3677 132.022 71.3708 132.039C71.3708 132.06 71.3898 132.138 71.4152 132.211C71.4405 132.289 71.5926 132.806 71.7509 133.362C71.9125 133.919 72.0518 134.406 72.0676 134.44C72.0803 134.479 72.1595 134.742 72.2418 135.022C72.3242 135.307 72.4192 135.622 72.4509 135.721C72.4857 135.82 72.5111 135.919 72.5111 135.941C72.5111 135.958 72.5681 136.16 72.6378 136.38C72.7074 136.6 72.7644 136.803 72.7644 136.82C72.7644 136.842 72.7993 136.967 72.8436 137.096C72.888 137.225 72.9228 137.346 72.9228 137.368C72.9228 137.385 72.9545 137.441 72.9957 137.488C73.0717 137.583 73.1604 137.583 73.2269 137.493C73.2617 137.441 73.5879 136.445 73.816 135.691C73.8698 135.514 73.9332 135.307 73.9553 135.229C73.9807 135.156 73.9997 135.083 73.9997 135.065C73.9997 135.048 74.0282 134.953 74.063 134.854C74.0947 134.755 74.2404 134.298 74.3798 133.837C74.7535 132.612 74.839 132.336 75.2919 130.905C75.558 130.073 75.9982 128.659 76.2485 127.844C76.4797 127.089 76.5684 126.805 76.6317 126.615C76.6634 126.52 76.7742 126.162 76.8819 125.818C76.9896 125.473 77.1036 125.115 77.1353 125.02C77.167 124.925 77.2335 124.722 77.2778 124.567C77.3728 124.257 77.4394 124.05 77.4995 123.856C77.5217 123.783 77.6072 123.502 77.6896 123.231C77.8606 122.657 78.1235 121.812 78.2723 121.368C78.3072 121.256 78.3389 121.153 78.3389 121.14C78.3389 121.131 78.3832 120.989 78.437 120.829C78.6651 120.148 79.2067 119.204 79.6216 118.764C79.7103 118.674 79.7958 118.566 79.818 118.531C79.8687 118.445 79.8687 118.316 79.8211 118.311C79.5139 118.286 76.2643 118.333 76.1788 118.363C76.0331 118.415 76.0426 118.471 76.2548 118.768C76.6634 119.329 76.7679 120.165 76.6285 121.786C76.5335 122.929 76.3561 124.02 76.0077 125.602C75.9032 126.08 75.5517 127.499 75.5136 127.598C75.4978 127.641 75.3775 128.09 75.2476 128.59C75.1177 129.094 74.9562 129.663 74.8834 129.862C74.7662 130.189 74.7472 130.219 74.6712 130.206C74.6078 130.198 74.5698 130.15 74.5255 130.021C74.4589 129.831 74.2404 128.978 74.1739 128.641C74.1485 128.521 74.0694 128.202 73.9997 127.93C73.9268 127.658 73.8413 127.326 73.8097 127.197C73.778 127.068 73.7146 126.822 73.6735 126.658C73.5214 126.076 72.8373 123.416 72.5332 122.218C71.96 119.963 71.9093 119.73 71.9093 119.372C71.9093 119.057 71.9948 118.872 72.2292 118.678C72.4097 118.523 72.4731 118.385 72.378 118.337C72.3052 118.303 67.0919 118.294 67.0443 118.329Z" fill="#2D3A3A" fill-opacity="0.4"/>
<path d="M106.259 119.764C105.53 119.902 105.055 120.346 104.849 121.096C104.751 121.454 104.748 121.95 104.846 122.286C104.947 122.644 105.226 123.041 105.517 123.239C105.841 123.463 106.075 123.541 106.433 123.537C106.895 123.537 107.193 123.403 107.526 123.058C108.416 122.127 108.137 120.368 107.022 119.885C106.794 119.79 106.436 119.73 106.259 119.764Z" fill="#2D3A3A" fill-opacity="0.4"/>
<path d="M100.522 121.583C100.291 121.812 99.8541 122.252 99.5437 122.562C98.9831 123.122 96.9497 125.179 96.8072 125.33C96.7502 125.39 96.7375 125.438 96.7534 125.507C96.7755 125.593 96.8009 125.602 96.9877 125.606C97.6244 125.619 97.7352 125.636 97.7922 125.731C97.8207 125.778 97.8556 125.942 97.8682 126.11C97.8809 126.27 97.8841 128.378 97.8746 130.797C97.8651 133.215 97.8682 135.315 97.8809 135.466C97.9506 136.238 98.4352 136.906 99.1732 137.251C99.5184 137.41 99.7654 137.458 100.256 137.458C100.852 137.458 101.317 137.268 101.837 136.811C102.217 136.475 102.575 135.94 102.584 135.681C102.591 135.578 102.581 135.565 102.527 135.587C102.492 135.604 102.397 135.677 102.318 135.755C102.065 136.001 101.884 136.091 101.704 136.061C101.514 136.026 101.308 135.91 101.226 135.785C101.083 135.565 101.08 135.466 101.08 130.577C101.08 128.037 101.089 125.899 101.099 125.826C101.108 125.752 101.137 125.683 101.162 125.67C101.184 125.658 101.365 125.636 101.561 125.619C101.995 125.584 102.138 125.528 102.35 125.317C102.591 125.08 102.721 124.649 102.587 124.532C102.568 124.515 102.236 124.493 101.85 124.481C101.463 124.468 101.137 124.442 101.121 124.424C101.108 124.403 101.089 123.679 101.08 122.816C101.067 121.48 101.058 121.238 101.017 121.204C100.991 121.182 100.963 121.161 100.953 121.161C100.944 121.161 100.75 121.35 100.522 121.583Z" fill="#2D3A3A" fill-opacity="0.4"/>
<path d="M94.4029 124.131C93.893 124.334 93.5763 124.627 93.1423 125.3C93.022 125.485 92.8858 125.645 92.8478 125.645C92.7908 125.645 92.7813 125.563 92.7496 124.882C92.7306 124.511 92.7053 124.187 92.6894 124.166C92.6546 124.118 92.5469 124.136 92.0465 124.256C91.6379 124.36 91.0551 124.42 90.1524 124.459C89.0185 124.511 89.009 124.511 88.9552 124.58C88.9109 124.64 88.9172 124.662 89.0217 124.804C89.3004 125.183 89.424 125.425 89.5411 125.821C89.5918 125.998 89.5982 126.343 89.6045 130.719C89.6172 135.966 89.6235 135.794 89.405 136.328C89.3384 136.488 89.2086 136.721 89.1136 136.846C89.0217 136.971 88.9489 137.1 88.9584 137.13C88.9679 137.16 89.0312 137.199 89.0977 137.208C89.3194 137.251 93.4527 137.208 93.4844 137.165C93.5034 137.139 93.4306 137.009 93.2785 136.807C92.9523 136.367 92.8256 136.018 92.7781 135.444C92.7591 135.173 92.7496 133.81 92.7559 131.616C92.7686 127.861 92.7623 128.012 92.9713 127.464C93.1107 127.102 93.1297 127.067 93.307 126.826C93.6111 126.412 94.0007 126.257 94.3903 126.395C94.5011 126.434 94.7228 126.554 94.8875 126.662C95.1219 126.817 95.1947 126.848 95.2454 126.813C95.2803 126.787 95.4038 126.477 95.5368 126.089C95.6635 125.714 95.8219 125.252 95.8852 125.063C95.9517 124.873 96.0119 124.675 96.0214 124.619C96.0499 124.459 95.9295 124.317 95.6635 124.192C95.3404 124.045 94.7038 124.015 94.4029 124.131Z" fill="#2D3A3A" fill-opacity="0.4"/>
<path d="M82.38 124.33C82.2216 124.364 82.0474 124.416 81.9873 124.442C81.9303 124.468 81.8637 124.493 81.8447 124.498C81.7339 124.528 81.4963 124.627 81.3158 124.722C81.1353 124.812 80.5493 125.231 80.4511 125.343C80.429 125.364 80.2896 125.52 80.1407 125.683C79.6276 126.248 79.2159 126.964 78.8802 127.869C78.4748 128.969 78.2847 130.378 78.3702 131.637C78.4906 133.401 78.8992 134.694 79.672 135.763C80.2516 136.561 80.8217 136.996 81.68 137.29C82.0316 137.41 82.1171 137.423 82.7728 137.445C83.3999 137.466 83.5392 137.458 83.9288 137.376C84.6573 137.221 85.0975 137.018 85.5378 136.626C86.0572 136.164 86.526 135.384 86.8585 134.422C87.1309 133.642 87.2069 133.297 87.1309 133.194C87.0866 133.138 87.0676 133.151 86.9472 133.345C86.4943 134.052 86.2061 134.353 85.731 134.604C85.2432 134.867 85.1229 134.892 84.4672 134.892C83.8275 134.888 83.5361 134.836 83.1845 134.647C82.9216 134.509 82.5067 134.121 82.3388 133.853C81.9588 133.258 81.7117 132.379 81.6167 131.292C81.5375 130.387 81.5629 130.021 81.7054 129.982C81.7434 129.969 82.966 129.947 84.4197 129.934C87.0422 129.908 87.0644 129.908 87.1214 129.818C87.1531 129.771 87.1753 129.658 87.1753 129.564C87.1753 129.262 87.0803 128.387 86.9979 127.938C86.9156 127.485 86.697 126.709 86.6178 126.589C86.5925 126.554 86.5735 126.507 86.5735 126.485C86.5735 126.425 86.2631 125.886 86.1237 125.705C85.9654 125.498 85.6581 125.183 85.4903 125.05C85.1007 124.748 84.3817 124.429 83.9446 124.373C83.8306 124.355 83.6976 124.338 83.6438 124.325C83.3745 124.269 82.6429 124.269 82.38 124.33ZM83.1148 124.791C83.2985 124.856 83.5297 125.144 83.6564 125.472C83.8971 126.084 84.0713 127.503 84.0713 128.861C84.0713 129.262 84.0428 129.339 83.8655 129.395C83.6944 129.451 81.7719 129.451 81.699 129.395C81.5755 129.309 81.5597 129.132 81.5819 128.27C81.6167 126.86 81.6705 126.326 81.8289 125.774C81.9239 125.451 82.0126 125.265 82.1646 125.075C82.3325 124.868 82.4465 124.791 82.6524 124.743C82.8266 124.705 82.8868 124.713 83.1148 124.791Z" fill="#2D3A3A" fill-opacity="0.4"/>
<path d="M107.573 124.399C107.193 124.554 106.31 124.653 104.786 124.718C104.473 124.735 104.216 124.765 104.194 124.791C104.14 124.851 104.178 124.938 104.365 125.205C104.571 125.49 104.774 126.024 104.815 126.378C104.853 126.701 104.859 134.267 104.821 135.238C104.799 135.815 104.793 135.854 104.679 136.177C104.593 136.423 104.498 136.6 104.337 136.82C104.127 137.109 104.118 137.135 104.172 137.191C104.222 137.242 104.558 137.247 106.446 137.225C107.802 137.208 108.676 137.182 108.695 137.156C108.714 137.13 108.657 137.027 108.536 136.867C108.315 136.574 108.172 136.29 108.074 135.953C107.969 135.587 107.96 134.923 107.963 129.361C107.966 125.058 107.96 124.382 107.922 124.347C107.859 124.295 107.817 124.304 107.573 124.399Z" fill="#2D3A3A" fill-opacity="0.4"/>
<defs>
<filter id="filter0_d_4464_223" x="28" y="0" width="174.83" height="187.45" filterUnits="userSpaceOnUse" color-interpolation-filters="sRGB">
<feFlood flood-opacity="0" result="BackgroundImageFix"/>
<feColorMatrix in="SourceAlpha" type="matrix" values="0 0 0 0 0 0 0 0 0 0 0 0 0 0 0 0 0 0 127 0" result="hardAlpha"/>
<feOffset dy="2"/>
<feGaussianBlur stdDeviation="9"/>
<feComposite in2="hardAlpha" operator="out"/>
<feColorMatrix type="matrix" values="0 0 0 0 0 0 0 0 0 0 0 0 0 0 0 0 0 0 0.5 0"/>
<feBlend mode="normal" in2="BackgroundImageFix" result="effect1_dropShadow_4464_223"/>
<feBlend mode="normal" in="SourceGraphic" in2="effect1_dropShadow_4464_223" result="shape"/>
</filter>
</defs>
</svg>
