<?xml version="1.0" standalone="no"?>
<!DOCTYPE svg PUBLIC "-//W3C//DTD SVG 20010904//EN"
 "http://www.w3.org/TR/2001/REC-SVG-20010904/DTD/svg10.dtd">
<svg version="1.0" xmlns="http://www.w3.org/2000/svg"
 width="100.000000pt" height="100.000000pt" viewBox="0 0 100.000000 100.000000"
 preserveAspectRatio="xMidYMid meet">

<g transform="translate(0.000000,100.000000) scale(0.100000,-0.100000)"
fill="#000000" stroke="none">
<path d="M295 951 c-11 -5 -31 -21 -45 -36 -34 -37 -35 -112 -2 -148 l23 -24
-23 -15 c-14 -9 -39 -13 -63 -11 -123 11 -194 -159 -100 -237 14 -12 12 -16
-19 -42 -47 -38 -68 -97 -64 -178 3 -60 5 -66 32 -79 37 -18 188 -26 243 -13
l42 10 3 -52 c4 -71 26 -81 178 -81 152 0 174 10 178 81 l3 52 42 -10 c55 -13
206 -5 243 13 27 13 29 18 32 82 3 80 -20 143 -67 178 l-30 22 24 29 c31 36
39 68 31 112 -13 70 -80 122 -147 113 -24 -3 -45 0 -58 10 l-21 14 22 30 c25
33 29 90 9 128 -16 30 -69 61 -104 61 -93 0 -148 -105 -98 -186 l19 -32 -25
-23 c-14 -13 -32 -37 -40 -53 l-15 -30 -13 31 c-7 17 -27 41 -44 54 l-31 23
23 24 c17 18 22 36 22 73 0 41 -5 53 -31 80 -33 33 -92 46 -129 30z m100 -56
c50 -49 15 -135 -55 -135 -41 0 -80 39 -80 80 0 41 39 80 80 80 19 0 40 -9 55
-25z m311 2 c20 -17 27 -33 27 -57 0 -24 -7 -40 -27 -57 -34 -28 -65 -29 -100
-2 -20 16 -26 29 -26 59 0 70 72 103 126 57z m-311 -193 c31 -15 65 -64 65
-96 0 -7 -14 -21 -30 -30 -79 -45 -92 -144 -29 -214 19 -20 19 -21 -9 -41
l-28 -21 -13 46 c-8 31 -25 59 -51 83 -34 32 -37 39 -24 50 48 40 57 117 19
173 -30 45 -30 44 -2 56 34 13 65 12 102 -6z m308 5 c12 -7 23 -13 25 -14 2
-2 -8 -20 -23 -40 -38 -57 -30 -134 19 -174 13 -11 10 -18 -24 -50 -26 -24
-43 -52 -51 -83 l-13 -46 -28 21 c-28 20 -28 21 -9 41 63 70 50 169 -29 214
-90 51 41 179 133 131z m-474 -43 c47 -25 63 -83 37 -135 -35 -66 -137 -66
-172 0 -47 91 44 182 135 135z m640 0 c67 -35 65 -143 -4 -174 -91 -41 -179
51 -131 137 26 47 84 63 135 37z m-320 -120 c67 -35 65 -143 -4 -174 -51 -23
-107 -7 -131 39 -47 91 44 182 135 135z m-298 -129 c45 -30 69 -80 69 -144 0
-49 -2 -53 -27 -60 -16 -5 -66 -8 -113 -8 -47 0 -97 3 -113 8 -25 7 -27 11
-27 65 0 127 115 203 211 139z m640 0 c45 -30 69 -80 69 -144 0 -49 -2 -53
-27 -60 -16 -5 -66 -8 -113 -8 -47 0 -97 3 -112 8 -26 7 -28 11 -28 65 0 127
115 203 211 139z m-320 -120 c45 -30 69 -80 69 -144 0 -49 -2 -53 -27 -60 -36
-10 -190 -10 -225 0 -26 7 -28 11 -28 65 0 127 115 203 211 139z"/>
</g>
</svg>
