<?xml version="1.0" standalone="no"?>
<!DOCTYPE svg PUBLIC "-//W3C//DTD SVG 20010904//EN"
 "http://www.w3.org/TR/2001/REC-SVG-20010904/DTD/svg10.dtd">
<svg version="1.0" xmlns="http://www.w3.org/2000/svg"
 width="3164.000000pt" height="568.000000pt" viewBox="0 0 3164.000000 568.000000"
 preserveAspectRatio="xMidYMid meet">

<g transform="translate(0.000000,568.000000) scale(0.100000,-0.100000)"
fill="#000000" stroke="none">
<path d="M15940 5078 c-58 -4 -150 -14 -205 -22 -55 -9 -116 -16 -136 -16 -36
0 -213 -47 -354 -94 -207 -70 -436 -210 -586 -360 -235 -233 -352 -531 -350
-891 1 -107 3 -148 16 -220 2 -11 6 -44 10 -74 13 -95 113 -338 154 -375 12
-11 21 -25 21 -32 0 -23 158 -170 246 -229 94 -62 219 -128 299 -158 168 -61
257 -90 310 -101 33 -7 72 -18 88 -24 15 -6 69 -21 120 -32 50 -10 110 -24
132 -29 22 -6 81 -20 130 -31 125 -28 262 -65 310 -82 22 -9 58 -20 80 -26
184 -47 397 -170 513 -297 113 -124 168 -273 179 -485 13 -270 -109 -527 -315
-664 -81 -53 -194 -107 -282 -135 -156 -48 -432 -67 -608 -41 -37 6 -103 15
-147 21 -44 6 -93 17 -110 24 -16 7 -48 18 -70 24 -97 29 -260 112 -365 188
-100 72 -158 126 -226 208 -27 33 -52 62 -55 65 -8 7 -89 128 -89 133 0 3 -19
40 -43 83 -24 44 -61 111 -82 149 -21 39 -44 88 -50 110 -7 22 -18 40 -25 40
-9 0 -13 -34 -16 -130 -6 -258 -6 -964 1 -974 11 -19 38 -12 143 41 l104 53
132 0 c100 0 154 -5 231 -23 236 -54 326 -71 415 -81 52 -6 118 -16 145 -21
82 -16 409 -23 530 -11 153 15 280 36 356 60 35 11 104 32 154 46 49 15 137
51 194 81 58 30 109 54 114 54 4 0 35 18 67 40 32 22 62 40 65 40 13 0 154
121 211 181 78 81 102 111 163 199 28 41 95 174 106 210 4 14 11 30 15 35 5 6
11 27 15 48 4 20 11 40 16 42 4 3 11 27 14 53 4 26 14 72 23 102 14 44 17 97
17 270 0 186 -3 228 -23 315 -49 218 -141 409 -250 521 -121 124 -283 207
-567 289 -49 14 -124 36 -165 49 -41 13 -111 29 -155 36 -44 7 -88 16 -98 22
-10 5 -56 16 -103 24 -47 8 -95 19 -108 24 -13 5 -68 16 -121 25 -54 9 -116
24 -139 32 -23 8 -66 21 -96 28 -122 29 -329 116 -420 177 -19 12 -48 30 -63
38 -46 23 -197 211 -197 245 0 5 -6 22 -14 37 -8 14 -17 44 -20 65 -3 21 -10
64 -16 97 -18 91 1 276 36 353 8 17 14 38 14 46 0 33 93 197 150 265 34 39 65
72 69 72 4 0 16 8 27 18 67 61 229 132 351 153 29 5 79 14 111 20 86 15 324
12 433 -7 126 -21 275 -71 381 -127 183 -97 375 -266 483 -428 27 -40 60 -85
72 -98 13 -13 23 -30 23 -37 0 -8 4 -14 9 -14 5 0 14 -13 21 -30 7 -16 20 -39
31 -51 l18 -21 10 39 c6 22 10 184 11 390 0 194 3 366 6 382 8 41 -11 74 -39
65 -12 -3 -29 -12 -37 -20 -9 -7 -47 -25 -85 -40 -54 -20 -87 -26 -143 -25
-40 0 -77 3 -82 6 -4 3 -65 16 -134 30 -70 13 -143 29 -164 35 -20 6 -93 17
-162 25 -69 8 -160 19 -202 25 -101 14 -247 17 -378 8z"/>
<path d="M18900 5020 c-11 -11 -20 -30 -20 -42 0 -13 0 -1001 0 -2197 -1
-2074 0 -2176 17 -2193 17 -17 275 -18 6016 -20 5322 -3 5999 -1 6007 12 6 9
10 852 10 2231 0 2012 -1 2217 -16 2223 -9 3 -2711 6 -6005 6 -5976 0 -5989 0
-6009 -20z m1682 -2460 c188 -18 332 -67 345 -117 8 -35 -28 -141 -68 -199
-34 -49 -62 -58 -133 -38 -168 47 -310 58 -366 29 -30 -16 -47 -53 -36 -80 8
-21 55 -48 166 -96 146 -64 291 -137 336 -172 90 -69 129 -165 122 -301 -5
-104 -32 -162 -110 -238 -84 -83 -176 -125 -333 -154 -197 -35 -535 4 -612 70
-28 24 -28 25 -28 148 0 177 9 187 135 148 91 -28 279 -60 357 -60 107 0 163
40 145 105 -7 24 -21 37 -72 62 -35 17 -86 39 -114 48 -28 9 -96 38 -152 65
-204 99 -276 192 -282 367 -8 194 75 303 283 375 120 41 257 54 417 38z m2690
-14 c43 -8 107 -24 144 -36 72 -24 90 -48 81 -106 -7 -41 -56 -165 -74 -185
-23 -27 -84 -31 -150 -10 -126 40 -275 47 -349 16 -41 -17 -111 -80 -132 -119
-45 -84 -65 -257 -42 -366 16 -76 76 -172 122 -196 50 -26 127 -44 189 -44 69
0 214 25 272 46 23 9 56 18 73 21 28 4 31 2 42 -35 15 -49 15 -184 1 -235 -15
-55 -76 -81 -237 -101 -253 -32 -449 -9 -608 72 -22 11 -75 52 -116 91 -125
116 -178 240 -198 456 -17 181 16 312 118 462 96 141 249 234 442 268 100 17
326 18 422 1z m5326 -6 c9 -11 19 -37 22 -58 8 -61 -4 -220 -18 -234 -8 -8
-56 -13 -150 -16 -75 -1 -146 -5 -158 -7 -42 -9 -44 -33 -44 -519 0 -383 -2
-465 -14 -482 -13 -18 -28 -19 -205 -19 -170 0 -192 2 -208 18 -17 17 -18 48
-15 498 2 358 0 484 -9 495 -9 11 -47 14 -180 14 l-168 0 -6 43 c-3 23 -5 94
-3 157 l3 115 450 5 c248 3 503 6 568 8 107 2 119 0 135 -18z m486 6 c42 -17
55 -37 151 -221 83 -160 118 -215 139 -215 19 0 50 39 83 105 113 227 154 303
167 314 33 28 411 40 436 15 11 -11 -7 -92 -25 -114 -7 -8 -34 -51 -60 -95
-26 -44 -58 -96 -70 -115 -18 -28 -146 -237 -185 -300 -5 -8 -31 -51 -58 -95
-27 -44 -51 -88 -55 -97 -3 -9 -9 -124 -12 -255 -5 -187 -10 -241 -21 -253
-20 -20 -386 -22 -406 -2 -10 10 -14 76 -19 255 l-5 242 -32 61 c-37 73 -123
217 -297 494 -111 178 -155 256 -155 274 0 7 86 12 248 14 103 1 152 -2 176
-12z m-7003 -13 c15 -17 20 -242 7 -275 -7 -16 -26 -18 -190 -18 -196 0 -255
-8 -276 -37 -18 -24 -7 -123 16 -140 11 -9 66 -13 190 -13 168 0 205 -6 224
-34 4 -6 8 -61 8 -122 0 -158 14 -148 -224 -152 -187 -3 -197 -4 -211 -25 -21
-30 -21 -160 1 -181 17 -18 13 -18 255 -16 147 1 179 -1 192 -14 20 -20 30
-104 25 -202 -3 -61 -7 -79 -23 -90 -27 -20 -867 -16 -887 4 -10 10 -14 143
-16 645 -1 348 0 642 3 654 4 16 14 23 38 26 17 2 217 5 443 5 372 2 413 0
425 -15z m2075 -7 c12 -16 14 -92 14 -430 0 -259 4 -425 11 -449 14 -52 72
-114 117 -127 108 -29 243 2 282 66 34 54 40 129 40 534 1 212 5 391 9 399 13
21 84 30 244 31 134 0 149 -2 167 -20 19 -19 20 -33 20 -422 0 -443 -7 -520
-56 -625 -63 -132 -232 -250 -399 -279 -22 -3 -49 -8 -60 -10 -113 -23 -349
-9 -455 27 -180 62 -295 179 -346 355 -15 51 -18 120 -21 497 -4 322 -2 442 7
452 16 20 52 23 243 21 155 -1 170 -3 183 -20z m1873 14 c225 -29 395 -125
453 -258 59 -137 10 -315 -113 -413 -83 -67 -92 -78 -85 -110 3 -16 45 -80 93
-143 261 -336 287 -376 265 -398 -19 -19 -397 -24 -431 -6 -13 7 -49 52 -80
101 -112 175 -212 316 -238 337 -14 11 -36 20 -48 20 -46 0 -50 -19 -50 -231
0 -177 -2 -200 -18 -216 -16 -16 -39 -18 -206 -18 -146 0 -192 3 -205 14 -15
13 -16 66 -14 657 2 353 6 645 10 649 4 4 22 11 40 15 50 12 532 11 627 0z
m1203 -8 c19 -19 19 -1295 0 -1314 -19 -19 -395 -19 -414 0 -10 10 -14 145
-19 645 -4 347 -3 642 2 654 10 28 36 31 251 29 122 -1 171 -4 180 -14z"/>
<path d="M25850 2252 c-46 -7 -50 -18 -50 -133 0 -157 12 -166 167 -123 64 18
83 47 83 128 0 78 -25 105 -111 120 -35 6 -75 10 -89 8z"/>
<path d="M634 5007 c-8 -4 -14 -13 -14 -18 0 -6 34 -53 76 -105 129 -162 183
-263 314 -584 23 -58 51 -124 61 -147 11 -24 19 -47 19 -53 0 -6 4 -18 10 -28
11 -18 191 -464 241 -597 17 -44 37 -93 44 -110 7 -16 61 -151 120 -300 59
-148 113 -283 120 -300 8 -16 26 -61 40 -100 15 -38 35 -89 46 -112 10 -24 19
-45 19 -48 0 -3 41 -108 91 -233 51 -125 98 -245 106 -267 8 -22 19 -44 24
-49 5 -6 9 -17 9 -25 1 -9 9 -34 20 -56 11 -22 19 -44 20 -48 0 -5 6 -23 14
-40 8 -18 56 -138 106 -267 51 -129 95 -242 100 -250 4 -9 29 -70 55 -135 26
-66 56 -139 66 -162 11 -23 19 -46 19 -51 0 -4 18 -51 40 -102 22 -51 40 -98
40 -102 0 -5 11 -34 25 -64 14 -30 25 -58 25 -63 0 -4 10 -17 23 -28 24 -22
52 -22 73 -1 11 12 114 243 186 418 17 41 37 89 44 107 8 17 14 34 14 38 0 4
9 26 20 49 10 23 56 129 100 236 118 284 145 348 288 680 84 193 223 521 302
710 73 175 101 241 121 285 10 22 45 105 79 185 34 80 70 163 80 185 10 22 31
69 45 105 30 72 51 120 70 165 7 17 34 82 60 145 54 133 137 329 184 432 11
26 21 50 21 53 0 2 14 35 31 72 72 158 243 377 374 479 28 21 55 46 62 54 16
20 16 50 1 51 -97 6 -1123 -5 -1150 -12 -46 -12 -43 -25 24 -94 129 -130 162
-324 118 -700 -30 -265 -86 -518 -196 -885 -33 -111 -144 -440 -156 -463 -5
-10 -43 -114 -84 -230 -41 -117 -92 -249 -115 -295 -37 -76 -43 -83 -67 -80
-20 2 -32 13 -46 43 -21 44 -90 242 -111 320 -8 28 -33 102 -55 165 -23 63
-50 140 -60 170 -10 30 -30 87 -43 125 -48 135 -264 752 -360 1030 -181 523
-197 577 -197 660 0 73 27 116 101 161 57 36 77 68 47 79 -23 8 -1669 10
-1684 2z"/>
<path d="M13015 4674 c-230 -32 -380 -135 -445 -309 -31 -83 -32 -198 -1 -276
32 -83 120 -175 212 -221 102 -52 176 -70 289 -69 146 0 240 31 345 111 281
216 193 624 -159 736 -72 22 -185 36 -241 28z"/>
<path d="M11204 4252 c-73 -53 -211 -155 -309 -227 -177 -130 -819 -607 -864
-642 -18 -14 -22 -25 -17 -41 7 -20 15 -22 74 -23 201 -3 236 -7 254 -29 9
-11 20 -49 24 -88 4 -37 5 -526 2 -1087 -3 -561 -2 -1048 2 -1083 22 -179 175
-334 408 -414 109 -37 187 -48 342 -48 188 0 335 44 499 150 120 78 233 202
236 262 2 24 -1 27 -18 22 -11 -4 -41 -21 -66 -39 -80 -57 -137 -78 -194 -71
-60 8 -125 35 -151 64 -45 51 -46 74 -46 1208 0 589 3 1085 6 1102 3 17 12 33
20 36 7 3 64 8 126 12 137 8 182 21 249 70 76 55 117 155 75 182 -6 4 -111 9
-233 12 -122 3 -225 9 -230 13 -4 5 -10 173 -13 373 -4 310 -7 366 -20 374 -8
5 -17 10 -20 10 -3 0 -64 -44 -136 -98z"/>
<path d="M9272 3661 c-161 -47 -261 -115 -398 -271 -38 -43 -81 -80 -93 -80
-18 0 -21 19 -31 177 -6 86 -14 161 -19 166 -11 11 -45 7 -203 -21 -129 -24
-313 -38 -598 -47 -358 -12 -361 -12 -378 -28 -14 -14 -12 -19 21 -52 88 -88
127 -144 164 -236 16 -41 18 -121 20 -1136 4 -1217 6 -1177 -63 -1301 -21 -37
-62 -91 -92 -120 -29 -29 -52 -59 -49 -66 3 -7 23 -16 44 -18 70 -10 1375 0
1385 10 6 6 -17 36 -65 83 -103 102 -143 183 -158 316 -6 63 -9 379 -7 888 4
871 2 836 68 963 44 84 50 92 106 148 96 96 219 132 342 100 35 -9 105 -37
157 -62 74 -36 97 -43 113 -35 11 6 50 78 92 168 40 87 90 194 110 238 21 44
40 90 43 103 9 37 -29 70 -113 99 -102 34 -303 41 -398 14z"/>
<path d="M5476 3615 c-50 -8 -105 -20 -124 -26 -18 -6 -39 -12 -45 -13 -35 -7
-110 -30 -167 -52 -57 -21 -242 -118 -273 -144 -7 -5 -51 -41 -98 -79 -162
-131 -292 -297 -398 -507 -128 -255 -188 -582 -161 -874 38 -409 167 -709 411
-957 183 -185 363 -286 634 -354 111 -28 138 -31 345 -36 198 -5 242 -3 365
16 230 36 369 83 508 174 164 107 312 288 417 511 86 181 110 261 86 285 -14
13 -20 10 -58 -35 -143 -164 -234 -234 -384 -292 -154 -61 -192 -67 -399 -67
-202 1 -294 13 -405 57 -83 32 -214 122 -267 184 -120 138 -198 342 -228 594
-25 210 -17 295 28 304 12 3 398 8 857 11 828 6 835 6 853 27 10 11 17 37 17
59 0 70 -30 273 -56 377 -26 105 -95 285 -120 313 -8 8 -14 19 -14 24 0 14
-98 139 -142 181 -50 48 -147 121 -200 152 -123 70 -350 144 -488 157 -36 4
-78 8 -95 11 -85 13 -316 13 -399 -1z m232 -107 c58 -15 131 -82 171 -158 76
-142 131 -471 131 -786 0 -93 -9 -111 -65 -124 -54 -13 -661 -13 -684 0 -39
20 -44 61 -37 261 11 327 28 451 78 579 30 75 58 118 106 162 53 48 89 66 154
77 55 9 74 7 146 -11z"/>
<path d="M13430 3599 c-120 -36 -399 -59 -880 -74 -99 -4 -180 -11 -187 -17
-17 -14 -5 -34 54 -96 65 -66 129 -190 142 -272 12 -75 14 -1830 2 -2055 -7
-134 -9 -143 -45 -218 -27 -57 -57 -98 -108 -149 -66 -67 -69 -73 -52 -86 16
-12 122 -13 718 -8 428 4 704 10 710 16 6 6 -12 30 -50 67 -70 68 -115 134
-146 212 -33 85 -36 239 -35 1529 1 998 -1 1155 -13 1163 -20 12 -33 10 -110
-12z"/>
</g>
</svg>
