<?xml version="1.0" encoding="utf-8"?>
<!-- Generator: Adobe Illustrator 24.2.3, SVG Export Plug-In . SVG Version: 6.00 Build 0)  -->
<svg version="1.1" id="Слой_1" xmlns="http://www.w3.org/2000/svg" xmlns:xlink="http://www.w3.org/1999/xlink" x="0px" y="0px"
	 viewBox="0 0 3164 568" style="enable-background:new 0 0 3164 568;" xml:space="preserve">
<style type="text/css">
	.st0{fill:#FFFFFF;}
</style>
<g transform="translate(0.000000,568.000000) scale(0.100000,-0.100000)">
	<path class="st0" d="M15940,5078c-58-4-150-14-205-22c-55-9-116-16-136-16c-36,0-213-47-354-94c-207-70-436-210-586-360
		c-235-233-352-531-350-891c1-107,3-148,16-220c2-11,6-44,10-74c13-95,113-338,154-375c12-11,21-25,21-32c0-23,158-170,246-229
		c94-62,219-128,299-158c168-61,257-90,310-101c33-7,72-18,88-24c15-6,69-21,120-32c50-10,110-24,132-29c22-6,81-20,130-31
		c125-28,262-65,310-82c22-9,58-20,80-26c184-47,397-170,513-297c113-124,168-273,179-485c13-270-109-527-315-664
		c-81-53-194-107-282-135c-156-48-432-67-608-41c-37,6-103,15-147,21s-93,17-110,24c-16,7-48,18-70,24c-97,29-260,112-365,188
		c-100,72-158,126-226,208c-27,33-52,62-55,65c-8,7-89,128-89,133c0,3-19,40-43,83c-24,44-61,111-82,149c-21,39-44,88-50,110
		c-7,22-18,40-25,40c-9,0-13-34-16-130c-6-258-6-964,1-974c11-19,38-12,143,41l104,53h132c100,0,154-5,231-23c236-54,326-71,415-81
		c52-6,118-16,145-21c82-16,409-23,530-11c153,15,280,36,356,60c35,11,104,32,154,46c49,15,137,51,194,81c58,30,109,54,114,54
		c4,0,35,18,67,40s62,40,65,40c13,0,154,121,211,181c78,81,102,111,163,199c28,41,95,174,106,210c4,14,11,30,15,35c5,6,11,27,15,48
		c4,20,11,40,16,42c4,3,11,27,14,53c4,26,14,72,23,102c14,44,17,97,17,270c0,186-3,228-23,315c-49,218-141,409-250,521
		c-121,124-283,207-567,289c-49,14-124,36-165,49s-111,29-155,36s-88,16-98,22c-10,5-56,16-103,24s-95,19-108,24s-68,16-121,25
		c-54,9-116,24-139,32s-66,21-96,28c-122,29-329,116-420,177c-19,12-48,30-63,38c-46,23-197,211-197,245c0,5-6,22-14,37
		c-8,14-17,44-20,65s-10,64-16,97c-18,91,1,276,36,353c8,17,14,38,14,46c0,33,93,197,150,265c34,39,65,72,69,72s16,8,27,18
		c67,61,229,132,351,153c29,5,79,14,111,20c86,15,324,12,433-7c126-21,275-71,381-127c183-97,375-266,483-428c27-40,60-85,72-98
		c13-13,23-30,23-37c0-8,4-14,9-14s14-13,21-30c7-16,20-39,31-51l18-21l10,39c6,22,10,184,11,390c0,194,3,366,6,382
		c8,41-11,74-39,65c-12-3-29-12-37-20c-9-7-47-25-85-40c-54-20-87-26-143-25c-40,0-77,3-82,6c-4,3-65,16-134,30
		c-70,13-143,29-164,35c-20,6-93,17-162,25s-160,19-202,25C16217,5084,16071,5087,15940,5078z"/>
	<path class="st0" d="M18900,5020c-11-11-20-30-20-42c0-13,0-1001,0-2197c-1-2074,0-2176,17-2193s275-18,6016-20
		c5322-3,5999-1,6007,12c6,9,10,852,10,2231c0,2012-1,2217-16,2223c-9,3-2711,6-6005,6C18933,5040,18920,5040,18900,5020z
		 M20582,2560c188-18,332-67,345-117c8-35-28-141-68-199c-34-49-62-58-133-38c-168,47-310,58-366,29c-30-16-47-53-36-80
		c8-21,55-48,166-96c146-64,291-137,336-172c90-69,129-165,122-301c-5-104-32-162-110-238c-84-83-176-125-333-154
		c-197-35-535,4-612,70c-28,24-28,25-28,148c0,177,9,187,135,148c91-28,279-60,357-60c107,0,163,40,145,105c-7,24-21,37-72,62
		c-35,17-86,39-114,48s-96,38-152,65c-204,99-276,192-282,367c-8,194,75,303,283,375C20285,2563,20422,2576,20582,2560z M23272,2546
		c43-8,107-24,144-36c72-24,90-48,81-106c-7-41-56-165-74-185c-23-27-84-31-150-10c-126,40-275,47-349,16c-41-17-111-80-132-119
		c-45-84-65-257-42-366c16-76,76-172,122-196c50-26,127-44,189-44c69,0,214,25,272,46c23,9,56,18,73,21c28,4,31,2,42-35
		c15-49,15-184,1-235c-15-55-76-81-237-101c-253-32-449-9-608,72c-22,11-75,52-116,91c-125,116-178,240-198,456
		c-17,181,16,312,118,462c96,141,249,234,442,268C22950,2562,23176,2563,23272,2546z M28598,2540c9-11,19-37,22-58
		c8-61-4-220-18-234c-8-8-56-13-150-16c-75-1-146-5-158-7c-42-9-44-33-44-519c0-383-2-465-14-482c-13-18-28-19-205-19
		c-170,0-192,2-208,18c-17,17-18,48-15,498c2,358,0,484-9,495s-47,14-180,14h-168l-6,43c-3,23-5,94-3,157l3,115l450,5
		c248,3,503,6,568,8C28570,2560,28582,2558,28598,2540z M29084,2546c42-17,55-37,151-221c83-160,118-215,139-215c19,0,50,39,83,105
		c113,227,154,303,167,314c33,28,411,40,436,15c11-11-7-92-25-114c-7-8-34-51-60-95s-58-96-70-115c-18-28-146-237-185-300
		c-5-8-31-51-58-95s-51-88-55-97c-3-9-9-124-12-255c-5-187-10-241-21-253c-20-20-386-22-406-2c-10,10-14,76-19,255l-5,242l-32,61
		c-37,73-123,217-297,494c-111,178-155,256-155,274c0,7,86,12,248,14C29011,2559,29060,2556,29084,2546z M22081,2533
		c15-17,20-242,7-275c-7-16-26-18-190-18c-196,0-255-8-276-37c-18-24-7-123,16-140c11-9,66-13,190-13c168,0,205-6,224-34
		c4-6,8-61,8-122c0-158,14-148-224-152c-187-3-197-4-211-25c-21-30-21-160,1-181c17-18,13-18,255-16c147,1,179-1,192-14
		c20-20,30-104,25-202c-3-61-7-79-23-90c-27-20-867-16-887,4c-10,10-14,143-16,645c-1,348,0,642,3,654c4,16,14,23,38,26
		c17,2,217,5,443,5C22028,2550,22069,2548,22081,2533z M24156,2526c12-16,14-92,14-430c0-259,4-425,11-449c14-52,72-114,117-127
		c108-29,243,2,282,66c34,54,40,129,40,534c1,212,5,391,9,399c13,21,84,30,244,31c134,0,149-2,167-20c19-19,20-33,20-422
		c0-443-7-520-56-625c-63-132-232-250-399-279c-22-3-49-8-60-10c-113-23-349-9-455,27c-180,62-295,179-346,355c-15,51-18,120-21,497
		c-4,322-2,442,7,452c16,20,52,23,243,21C24128,2545,24143,2543,24156,2526z M26029,2540c225-29,395-125,453-258
		c59-137,10-315-113-413c-83-67-92-78-85-110c3-16,45-80,93-143c261-336,287-376,265-398c-19-19-397-24-431-6c-13,7-49,52-80,101
		c-112,175-212,316-238,337c-14,11-36,20-48,20c-46,0-50-19-50-231c0-177-2-200-18-216s-39-18-206-18c-146,0-192,3-205,14
		c-15,13-16,66-14,657c2,353,6,645,10,649s22,11,40,15C25452,2552,25934,2551,26029,2540z M27232,2532c19-19,19-1295,0-1314
		s-395-19-414,0c-10,10-14,145-19,645c-4,347-3,642,2,654c10,28,36,31,251,29C27174,2545,27223,2542,27232,2532z"/>
	<path class="st0" d="M25850,2252c-46-7-50-18-50-133c0-157,12-166,167-123c64,18,83,47,83,128c0,78-25,105-111,120
		C25904,2250,25864,2254,25850,2252z"/>
	<path class="st0" d="M634,5007c-8-4-14-13-14-18c0-6,34-53,76-105c129-162,183-263,314-584c23-58,51-124,61-147c11-24,19-47,19-53
		s4-18,10-28c11-18,191-464,241-597c17-44,37-93,44-110c7-16,61-151,120-300c59-148,113-283,120-300c8-16,26-61,40-100
		c15-38,35-89,46-112c10-24,19-45,19-48s41-108,91-233c51-125,98-245,106-267s19-44,24-49c5-6,9-17,9-25c1-9,9-34,20-56s19-44,20-48
		c0-5,6-23,14-40c8-18,56-138,106-267c51-129,95-242,100-250c4-9,29-70,55-135c26-66,56-139,66-162c11-23,19-46,19-51
		c0-4,18-51,40-102s40-98,40-102c0-5,11-34,25-64s25-58,25-63c0-4,10-17,23-28c24-22,52-22,73-1c11,12,114,243,186,418
		c17,41,37,89,44,107c8,17,14,34,14,38s9,26,20,49c10,23,56,129,100,236c118,284,145,348,288,680c84,193,223,521,302,710
		c73,175,101,241,121,285c10,22,45,105,79,185s70,163,80,185s31,69,45,105c30,72,51,120,70,165c7,17,34,82,60,145
		c54,133,137,329,184,432c11,26,21,50,21,53c0,2,14,35,31,72c72,158,243,377,374,479c28,21,55,46,62,54c16,20,16,50,1,51
		c-97,6-1123-5-1150-12c-46-12-43-25,24-94c129-130,162-324,118-700c-30-265-86-518-196-885c-33-111-144-440-156-463
		c-5-10-43-114-84-230c-41-117-92-249-115-295c-37-76-43-83-67-80c-20,2-32,13-46,43c-21,44-90,242-111,320c-8,28-33,102-55,165
		c-23,63-50,140-60,170s-30,87-43,125c-48,135-264,752-360,1030c-181,523-197,577-197,660c0,73,27,116,101,161c57,36,77,68,47,79
		C2295,5013,649,5015,634,5007z"/>
	<path class="st0" d="M13015,4674c-230-32-380-135-445-309c-31-83-32-198-1-276c32-83,120-175,212-221c102-52,176-70,289-69
		c146,0,240,31,345,111c281,216,193,624-159,736C13184,4668,13071,4682,13015,4674z"/>
	<path class="st0" d="M11204,4252c-73-53-211-155-309-227c-177-130-819-607-864-642c-18-14-22-25-17-41c7-20,15-22,74-23
		c201-3,236-7,254-29c9-11,20-49,24-88c4-37,5-526,2-1087s-2-1048,2-1083c22-179,175-334,408-414c109-37,187-48,342-48
		c188,0,335,44,499,150c120,78,233,202,236,262c2,24-1,27-18,22c-11-4-41-21-66-39c-80-57-137-78-194-71c-60,8-125,35-151,64
		c-45,51-46,74-46,1208c0,589,3,1085,6,1102s12,33,20,36c7,3,64,8,126,12c137,8,182,21,249,70c76,55,117,155,75,182
		c-6,4-111,9-233,12s-225,9-230,13c-4,5-10,173-13,373c-4,310-7,366-20,374c-8,5-17,10-20,10S11276,4306,11204,4252z"/>
	<path class="st0" d="M9272,3661c-161-47-261-115-398-271c-38-43-81-80-93-80c-18,0-21,19-31,177c-6,86-14,161-19,166
		c-11,11-45,7-203-21c-129-24-313-38-598-47c-358-12-361-12-378-28c-14-14-12-19,21-52c88-88,127-144,164-236c16-41,18-121,20-1136
		c4-1217,6-1177-63-1301c-21-37-62-91-92-120c-29-29-52-59-49-66s23-16,44-18c70-10,1375,0,1385,10c6,6-17,36-65,83
		c-103,102-143,183-158,316c-6,63-9,379-7,888c4,871,2,836,68,963c44,84,50,92,106,148c96,96,219,132,342,100c35-9,105-37,157-62
		c74-36,97-43,113-35c11,6,50,78,92,168c40,87,90,194,110,238c21,44,40,90,43,103c9,37-29,70-113,99C9568,3681,9367,3688,9272,3661z
		"/>
	<path class="st0" d="M5476,3615c-50-8-105-20-124-26c-18-6-39-12-45-13c-35-7-110-30-167-52c-57-21-242-118-273-144
		c-7-5-51-41-98-79c-162-131-292-297-398-507c-128-255-188-582-161-874c38-409,167-709,411-957c183-185,363-286,634-354
		c111-28,138-31,345-36c198-5,242-3,365,16c230,36,369,83,508,174c164,107,312,288,417,511c86,181,110,261,86,285
		c-14,13-20,10-58-35c-143-164-234-234-384-292c-154-61-192-67-399-67c-202,1-294,13-405,57c-83,32-214,122-267,184
		c-120,138-198,342-228,594c-25,210-17,295,28,304c12,3,398,8,857,11c828,6,835,6,853,27c10,11,17,37,17,59c0,70-30,273-56,377
		c-26,105-95,285-120,313c-8,8-14,19-14,24c0,14-98,139-142,181c-50,48-147,121-200,152c-123,70-350,144-488,157c-36,4-78,8-95,11
		C5790,3629,5559,3629,5476,3615z M5708,3508c58-15,131-82,171-158c76-142,131-471,131-786c0-93-9-111-65-124c-54-13-661-13-684,0
		c-39,20-44,61-37,261c11,327,28,451,78,579c30,75,58,118,106,162c53,48,89,66,154,77C5617,3528,5636,3526,5708,3508z"/>
	<path class="st0" d="M13430,3599c-120-36-399-59-880-74c-99-4-180-11-187-17c-17-14-5-34,54-96c65-66,129-190,142-272
		c12-75,14-1830,2-2055c-7-134-9-143-45-218c-27-57-57-98-108-149c-66-67-69-73-52-86c16-12,122-13,718-8c428,4,704,10,710,16
		s-12,30-50,67c-70,68-115,134-146,212c-33,85-36,239-35,1529c1,998-1,1155-13,1163C13520,3623,13507,3621,13430,3599z"/>
</g>
</svg>
